<svg xmlns="http://www.w3.org/2000/svg" width="276" height="126" viewBox="5.3 0.4 275.9 125.9"><style>.a{fill:#00AEEF;}.b{fill:#008AD0;}.c{fill:#0076C0;}.d{fill:#FFF;}</style><path d="M145.9 97.2c4.3 10.5 29.8 14.3 38.6 7.8 8.5 8.9 24.7 7.3 36.3 4.2 10.6-2.9 19.4-7 24-17 -6.6-2.9-14.1-0.1-20.7-1.7 -4.8-1.2-6.7-5-11.3-6.1 1-0.9 2.6-1 3.9-1.5 10.1 5 20.8 0 30.2 3.1 7.7 2.6 13 8.4 20.7 11.2 -7.2 0.3-18.2 0.5-22.4 5.3 -0.8 0.9-1 2.2-1.8 3.1 -2.8 3.4-9.4 4.9-14.3 6.5 -2.6 0.8-5.2 1.6-7.8 2.5 -2.5 0.9-4.9 2.5-7.1 3.1 -6.3 1.7-14.6 0.1-23.5-1 -4.8-0.6-9.4 0.4-13.2 0.1 -8.5-0.7-15.8-6-24.9-8.3 -7.7-1.9-14.6 0.9-22.3-0.8 -9.7-2.1-17.5-9.3-26.6-10.8 -0.2 0-0.3-0.1-0.5-0.1 1.1-1.4 2.6-2.2 4.2-2.9 7.2 0.3 12.6 4.3 17.8 5.6C131.8 101.3 141 100.1 145.9 97.2z" class="a"/><path d="M148.7 95.2c2.3 9 28.8 12.4 34.4 6.7 0.4 0.7 1.1 1.7 1.6 2.3 -6.1 4.7-19.2 3.7-25.2 1.9 -6.6-2-11.6-4.2-13.7-9.7C146.7 96 147.5 95.5 148.7 95.2z" class="b"/><path d="M188.6 96.9c3.7 0.1 6.7-0.7 9.6-1.7 0.5 1.6 0.5 3.1 1.5 4.2 5.8 6 17.9-4.5 7.3-7 1.1-1.3 3.1-0.6 4.2-0.2 4.5 1.5 8.2 7.2 15.9 6.7 -8 3.1-19.4 7.1-31.2 4C192.3 101.9 189.1 99.7 188.6 96.9z" class="a"/><path d="M124.7 87.7c-0.1 0.2-0.3 0.5-0.4 1 -4-0.4-6.8-3.5-10.3-4.9 -1-0.4-7 0.7-10.1-1.7 0-0.1-0.1-0.7 0-0.8 0-0.1 0.8 0.2 0.8 0.1 8.5-0.1 12.2 1.8 17.9 5.1C123.7 87.1 124.7 87.6 124.7 87.7z" class="c"/><path d="M140.4 85.9c2-1.1 4.1-1.8 6.1-2.8 2.2 1.2 3.9 2.6 6.4 3.6 -3.3 1.8-7.8 2.1-11 4.2C141.3 89.3 141.5 87.1 140.4 85.9z" class="a"/><path d="M125.4 71.1c0.2-1.1-1.1-1.4-1.9-1.4 0.6-0.4 2.6-0.8 3.4-0.9C126.5 69.5 125.9 70.7 125.4 71.1z" class="d"/><path d="M185.9 68.2c3.8-1.9 2.9-7.8 0.3-8.6 -2.1-0.6-5.7 1-7.6 1.8 -4.7 2.1-10.4 3.3-13.4 6.9 8 4.1 18.9 13.5 29.3 10.5 3.9-1.1 6.7-5.8 9.8-8.7 4.4-4.2 9.3-6.8 15.5-7.5 -4.1-2.9-9.4-5.6-16-6.2 -2.4-0.2-4.8 0-7.2-0.5 -5.9-1.4-11.8-7.9-17.9-7.5 0.5-0.8 0.8-2.5 0.9-3.5 6.5 1 11.2 7.2 17.8 8.7 1.5 0.3 3.1 0.2 4.6 0.3 9.2 1 16.9 4.5 21.9 9.7 -8.2 0.9-14.7 4.8-20.1 10.3 -4.1 4.2-6.7 8.3-13.8 7.8 -11.6-0.8-19.9-8.2-28.8-12.4 1.9-1.9 4.5-5.3 7.3-7 1.3-0.8 3.5-1 5.3-1.5 4-1.2 9.1-5.5 13.5-3.9 4.2 1.5 7.7 7 3 12C189.8 69.1 186.1 69.9 185.9 68.2z" class="d"/><path d="M160.8 41.5c-2.8-1.4-5.6 8.5 0.1 8 -0.9 0.5-2 1-3 1.4 -5.5-1.8-1.7-12.3 3.2-12.3C160.9 39.8 160.8 40.7 160.8 41.5z" class="d"/><path d="M150.9 24.7c-3.5 1.1-2.7 5.9-0.7 6.9 2.8 1.4 9.2-1.6 13.4-2.5 2-0.5 4.5-2.3 5.7-3.1 -6.2-4.1-13-11-22.3-11.5 -5.6-0.3-8.8 5.6-13.5 8.8 -3.5 2.4-6.9 2.9-11.6 3.3 3.5 3.2 7.9 5.7 13.4 6.8 1.7 0.3 3.5 0.2 5.2 0.7 5.9 1.7 10.1 7.4 15.6 8.8 -0.2 0.8-0.5 1.2-0.7 2.1 -5.4 0.3-9.7-6.7-15.2-8.2 -2-0.5-3.9-1-5.8-1.5 -7-1.7-12.1-5.2-16.2-9.2 3.7-1 7.5-1.6 11-2.9 6.6-2.7 9.7-11.2 18-10.7 10.7 0.7 17.4 8.8 25.3 12.7 -1.6 1.7-4.4 4.7-7.1 5.8 -1 0.4-4.3 1.5-6.4 2.1 -3.2 0.9-7.8 2.8-11.2-0.4 -1.9-1.8-2.2-6.5 0.5-8.4C149.3 24.2 150.4 23.8 150.9 24.7z" class="d"/><path d="M101.8 25.5c-2.5-0.5-2.5-0.4-1.9-1.5 1-1.8 6.5-5.7 7.5-6.5 2.4-2 5.6-4.9 8.1-5.9 4.1-1.6 9.5-0.5 13-1.6 7.7-2.4 11.3-10.6 21.9-9.5 7.6 0.7 13 4.9 18.2 8.6 4.8 3.4 9.4 8.1 15.8 10.1 4.5 1.4 9 0.6 13.5 2.4 2.1 0.8 4.1 2.5 6.7 3.4 -0.4 1.5-1.9 3.6-3.3 4.8 -3.1 2.6-9 5.8-11.9 6.1 0 0-2.2-1-2.2-1 4.9-2.5 11.6-4.4 15.3-8.8 -5.3-3.3-11-3.2-16.5-4.4 -6.7-1.4-11.6-5.9-16.2-9.2 -5.1-3.6-10.6-7.7-16.4-9.2 -12.1-3.2-15.9 6.5-24.2 8.9 -3.5 1-8.4 0.2-12.2 1.5C111.4 15.4 106.2 22.4 101.8 25.5z" class="d"/><path d="M102 92.2c-4.4 2.5-7.3 7.7-12.2 9.5 12.1-5.2 26.1 8.2 38.7 11.5 7.7 2 14.5-1.6 21.5-0.4 9.3 1.6 17.1 7.7 26.8 8.6 3.7 0.4 7.7-0.5 11.5-0.2 3 0.3 6.4 0.7 9.5 1.2 5.1 0.8 7.3 1.5 11.8 0.6 1.8-0.3 3.7-0.4 5.3-0.8 2.4-0.5 5.2-2.2 8.1-3.2 7-2.5 19-5.2 23.8-10.4 0.9-1 1.5-2.7 2.3-3.5 2.9-2.4 9.9-2.9 14.3-3.6 5.4-0.9 10.4-1.3 14.6-2.8 -9.9-3.9-19-12.5-28.7-16.8 -1.3-0.6-3.4-0.9-6.6-1.4 -3.5-0.5-12 0.3-16.7-0.1 3-2.7 7.8-2.3 13.2-2.2 4.4 0.1 7.9 0.2 11.6 1.8 4.8 2.1 10.4 6.3 15.2 9.3 5.4 3.3 10.5 6.6 15.2 9.3 -7.9 6.1-21.4 4.2-30.7 8.2 -4.6 8.6-17 10.8-26.4 14.1 -3 1.1-5.9 2.8-8.4 3.4 -1.7 0.4-3.8 0.3-5.7 0.7 -2.5 0.5-4.2 1.6-7 1.2 -4.8-0.7-10.9-2.6-16.6-2.7 -3.9-0.1-7.7 0.5-11.4-0.1 -10.6-1.6-17.8-8.2-28.6-8.9 -5.5-0.4-10.5 2.4-15.9 1.8 -5.3-0.6-10.1-3.8-14.7-6.3 -8-4.3-18.3-9.1-28.5-7.2 0.3-1.2 3.2-3.6 4-4 1.6-0.9 4-3 5.3-4.2 0.8-0.7 1.3-1.1 2.2-2 0.4-0.4 0.3-0.6 1.7-1.6C100.6 91 102 92 102 92.2z" class="d"/><path d="M134.9 92c-0.1-0.8-0.5-1.2-0.5-2.1 0.4 0.1 1.4-0.2 1.8-0.1 0.2-1-0.3-1.3-0.9-1.9 0.1-0.2 0-0.3 0-0.6 0.6-0.3 1.1-0.6 1.2-0.6C139.4 87.1 139.5 93.7 134.9 92z" class="c"/><path d="M118.7 70.9c0.7-0.1 4.3-1.2 6-1.5 1.2-0.3 2.1-0.4 0.6 1.8 0 0.2-1.6 1.5-1.6 1.7C122.1 72.1 120.9 71.8 118.7 70.9z" class="c"/><path d="M103.5 79.1c-0.3-0.9-0.4-1.3-0.6-2 2.7-1 3.5-4.2 8.6-4.5 -1.3 0.6-2.4 2.8-3.7 3.9C106.4 77.6 105.6 77.8 103.5 79.1z" class="d"/><path d="M226 80.5c4.6 0.4 14.4-0.4 16.7 0 2.5 0.4 5.3 1 6.6 1.6 9.8 4.3 18.8 12.8 28.7 16.8 -4.3 1.5-9.2 1.9-14.6 2.8 -4.4 0.7-11.4 1.1-14.3 3.6 -0.9 0.7-1.4 2.5-2.3 3.5 -4.8 5.3-16.8 8-23.8 10.4 -2.9 1-5.8 2.7-8.1 3.2 -1.5 0.3-3.5 0.5-5.3 0.8 -4.5 0.8-6.8 0.2-11.8-0.6 -3.1-0.5-6.6-0.9-9.5-1.2 -3.8-0.3-7.8 0.5-11.5 0.2 -9.7-1-17.4-7-26.8-8.6 -7-1.2-13.8 2.4-21.5 0.4 -12.6-3.3-26.6-16.7-38.7-11.5 4.9-1.7 7.8-7 12.2-9.5 0.3 0.1 0.5 0.2 0.8 0.2 0.5 0.1 0.7 0.2 1.1 0.4 -0.6 1.4-1.9 1.9-3 2.8 -1.2 1-2.2 2.1-3.2 2.9 13.6 1 21.8 11.5 34.6 12.7 5.7 0.5 11.6-1.6 17.6-0.5 10.3 1.8 17.5 8.2 27.9 8.8 3.3 0.2 6.3-0.7 9.8-0.5 5.4 0.4 10.5 2 16.4 2.4 3.3 0.2 7.1-0.5 10.2-1.1 1.9-0.4 3.6-1.7 5.5-2.4 5.6-2.1 12-3.6 17.6-5.9 2.2-0.9 4.4-1.8 6.2-3.3 2.2-1 2.1-3.2 3.5-4.7 2.3-2.5 8.1-3.1 12.1-3.7 4.8-0.7 9.7-0.7 13.7-1.5 -6.7-4.7-14.3-8.8-21.6-13.1 -1.5-0.8-1.7-0.9-2.8-1.4 -1-0.4-1.4-0.5-2.2-0.7 -1.6-0.4-2.3-0.5-3.8-0.7 -7.2-0.9-15.2 1.2-22.2-1.4C222.4 81.1 224.1 80.9 226 80.5z" class="c"/><path d="M237.4 111.8c-5.6 2.3-12 3.8-17.6 5.9 -2 0.8-3.7 2-5.5 2.4 -3.1 0.7-6.9 1.3-10.2 1.1 -5.9-0.4-11-2-16.4-2.4 -3.6-0.3-6.5 0.6-9.8 0.5 -10.5-0.6-17.7-7.1-27.9-8.8 -6.1-1-11.9 1.1-17.6 0.5 -12.7-1.2-21-11.7-34.6-12.7 1-0.8 2-1.9 3.2-2.8 1.1-0.9 1.2-0.9 2.1-1.5 0.6-0.6 0.6-0.8 0.9-1.3 1.7 0.2 1.8 0.3 3.5 0.6 -1.3 1.3-3.5 2.3-4.6 3.8 9.7 0.8 18 10.1 29.9 11.4 6.3 0.6 12.4-1.1 18.3 0.1 8.9 1.7 16 7.6 26.8 8.6 3.5 0.3 7.1-0.6 10.5-0.3 5.5 0.4 10.3 1.8 15.2 2.2 8.7 0.6 16.4-3.4 23.7-5.8 4.6-1.5 9.5-3 13.1-5 1.1-0.6 3-2 3.7-2.8 0.8-1 0.9-2.5 1.8-3.3 2.8-2.9 11.7-4.6 16.9-4.8 2.2-0.1 4 0.6 5.8 0.3 -7.1-3.3-13.4-8.6-20.8-11.7 -9-3.9-21.2 1.8-31.8-3.7 1.5-0.6 2.8-0.6 4.6-0.8 7.3 2.4 15 0.5 22.2 1.4 1.9 0.2 3.6 0.4 4.3 0.7 0.6 0.1 1.6 0.5 2.4 0.9 1 0.5 1.2 0.6 2.1 1.1 7.3 4.3 14.9 8.4 21.6 13.1 -4 0.7-8.8 0.8-13.7 1.5 -4 0.6-9.8 1.2-12.1 3.7 -1.4 1.6-1.2 3.1-3 4.6C241.8 110.2 240.3 110.5 237.4 111.8z" class="b"/><path d="M215.8 82.2c10.3 5.3 22.7-0.2 31.8 3.7 7.4 3.2 13.7 8.4 20.8 11.7 -1.8 0.3-3.6-0.4-5.8-0.3 -5.3 0.3-14.1 1.9-16.9 4.8 -0.9 0.9-1 2.3-1.8 3.3 -0.6 0.8-2.5 2.1-3.7 2.8 -3.5 2-8.5 3.5-13.1 5 -7.3 2.4-15 6.4-23.7 5.8 -4.9-0.4-9.7-1.8-15.2-2.2 -3.4-0.3-7 0.7-10.5 0.3 -10.7-1-17.8-6.9-26.7-8.6 -5.9-1.2-12 0.6-18.3-0.1 -12-1.2-20.2-10.5-29.9-11.4 1.1-1.6 3.3-2.5 4.6-3.8 2.4 0.3 4.3 0.6 6.6 1.2 4.7 1 8.9 4.4 12.8 4.8 6.8 0.8 12.8-0.2 19.1-3 4.1 10.9 30.2 14.4 38.8 7.8 2 2.3 4.4 3.7 8.9 5.1 2.7 0.6 3.3 0.8 5.7 1.1 16.1 1.4 38.4-4.7 44.1-17.8 -0.3-0.3-3.7-0.5-4.8-0.8 -7.4-0.3-12.6 1.3-18-1.6 -5-2.7-5.3-5.8-11.1-4.8C211.4 83.8 213.9 82.4 215.8 82.2zM125.3 99.6c-5.2-1.3-10.6-5.3-17.8-5.6 -1.6 0.7-3.1 1.5-4.2 2.9 0.2 0 0.3 0.1 0.5 0.1 9.1 1.5 17 8.7 26.6 10.8 7.7 1.6 14.6-1.2 22.3 0.8 9 2.3 16.4 7.5 24.9 8.3 3.8 0.3 8.4-0.7 13.2-0.1 8.8 1.1 17.2 2.6 23.5 1 2.2-0.6 4.6-2.2 7.1-3.1 2.6-0.9 5.2-1.7 7.8-2.5 4.9-1.6 11.5-3.1 14.3-6.5 0.8-0.9 1-2.2 1.8-3.1 4.2-4.9 15.2-5 22.4-5.3 -7.7-2.8-13-8.7-20.7-11.2 -9.4-3.1-20 1.9-30.2-3.1 -1.3 0.5-2.9 0.6-3.9 1.5 4.6 1.2 6.5 5 11.3 6.1 6.6 1.6 14-1.2 20.7 1.7 -4.6 10-13.3 14.1-24 17 -11.6 3.1-27.8 4.7-36.3-4.2 -8.8 6.5-34.3 2.7-38.6-7.8C141 100.1 131.8 101.3 125.3 99.6z" class="a"/><path d="M148.2 55.3c-0.3-0.3-0.4-0.4-0.7-0.5 -6.1-4.7-12.6-5.2-19-6.8 -9.4-2.4-16-9.7-22.4-15.2 -6.7-5.7-14-12.5-23-14.8 -1.7-0.4-2.8-0.6-4.3-0.7 -11.3-0.9-17 7.7-25.9 10.3 -5.3 1.5-13.2-0.6-19.2 1.2 -3.5 1.1-6.4 3.8-9.6 5.9 -5.4 3.5-9.3 7.9-16 9.4 1.7 3.1 3.8 5.1 7.3 6.9 2.7 1.4 6.5 1.5 9 2.8 2.5 1.4 4.2 4.1 6.2 6.5 5.9 7.1 13.8 11.2 24.7 14.8 7.2 2.4 12.8 5.2 18 8.8 4.5 3.1 15 10.6 21.5 7.9 2.4-1 5.7-5 6.3-7.9 1-5-3.7-13-9.7-12.9 -3 0-5.8 3.8-5.8 6.8 0 2.1 3 4.2 4.6 4.5 0.9 0.1 3.3 0 2.7-1.5 0-0.1 0-0.2 0-0.2 0.4 0.1 0.6 0.3 0.6 0.6 0.5 1.2-1.1 3-2.7 3.5 -4.5 0.6-7.6-2.1-8.1-5.5 -0.9-6.3 4.6-11 8.4-11.1 7.7 0 14.6 9.6 12.3 17.5 -1.5 5.3-6.5 10.1-12.2 9.8 -8-0.4-14.8-5.9-20-9.6 -4.9-3.5-10.4-6-17.5-8.5 -6.9-2.4-13.1-4.3-18.1-8.1 -4.8-3.7-7.5-9.3-11.7-12.5 -3-2.4-8.9-2.7-12.1-4.8 -2.8-1.9-5.2-5.8-6.5-8.5 1.8-0.7 3.6-0.7 5.1-1.5 2-1.1 3.3-3.1 4.9-4.5 1.7-1.4 3.7-2.8 5.3-3.9 3.5-2.4 7-5.5 11-7.1 5.4-2.2 13.6 0.2 19.5-1.2 4.9-1.2 8.8-4.9 12.9-7 5.4-2.8 11.3-5 19.5-2.9 9.9 2.5 16.9 9.2 23 14.5 5.7 5 12.9 12.9 21.9 15.3 6 1.6 11.4 1.7 16.1 4.3 2 1.1 4.1 3.3 7.2 4.3C150.4 54.3 149.4 54.8 148.2 55.3z" class="d"/><path d="M80.2 48.3c-3.5-2.1-6.4 7.3-1.9 9.2 2.7 1.1 6.4 0 9.4-0.8 6.3-1.6 12.1-1.3 16.7-4.9 -7.4-6.2-15.1-14.9-25.9-17.7 -9.5-2.4-13.3 3.6-19.1 7.4 -3.5 2.3-7.5 5-11.7 5.5 -2.7 0.4-5.8-0.8-7.8 0.1 3.8 4.2 10.1 8.7 17.9 10.7 2.3 0.6 4.7 0.8 7 1.7 7.6 3 11.6 10.6 19.4 12.9 -0.4 0.9-1.1 2-1.4 3.1 -8-2-11.9-10.9-19.6-13.7 -3.3-1.2-6.5-1.5-9.3-2.6 -8-3.1-14.3-7.8-18.7-14 9.3 0.2 16.5-2.1 23.3-6.6 5.9-3.9 10.1-9.9 20.1-7.4 13.1 3.2 20.4 13.5 30.7 20.2 -1.9 1.4-3.7 3.3-5.6 4.4 -2.1 1.2-3.5 1.8-5.4 2.3 -3.3 0.8-6.1 0.4-9 1.1 -4.7 1.1-12 3.7-15.4-1 -2.9-4-1.4-11.1 3.2-11.4C79.3 46.6 80.1 48 80.2 48.3z" class="d"/><path d="M88.6 68.6c-1.4 0.7-1.5 0.8-2.7 1.8 -0.4-0.2-1.2-0.5-1.4-0.6 -2-0.9-3.7-1.7-5.5-3.2 -4.2-3.2-9.1-8.8-15.2-10.5 -3.5-0.9-6.3-1-10.8-2.5 -4.3-1.3-5.5-2.9-8-4 5.2-0.5 10.7-2.8 15-5.1 5.1-2.7 8.9-9.4 15.8-8.2 7.7 1.4 12.8 5 18.7 9.8 3.1 2.1 4.6 3.8 6.5 6.1 -4 0.4-7.6 0.4-12.2 1.5 -3.6 0.9-10.8 3.1-10.8-0.9 0-1.1 0.9-1.7 1.6-2.4 -0.1 0.2 0.4-0.8 0.4-0.6 -0.1 0.4-0.1 0.4-0.3 0.9 -0.3 0.5-0.5 0.3-0.8 0.8 5.8 1.3 11.2-0.3 16.1-1.3C89.6 46.8 81.3 38.2 73.1 39c-2.3 0.2-6.3 4.3-8.6 6 -2.9 2.2-5.8 3.4-8.7 5 3.4 2.2 8.8 2.9 13.2 5.3 1.7 0.9 4.4 3.1 4.8 3 0 0 0-0.2 0-0.2 0.7 1 1.7 1.7 2.7 2.4C79.2 63.2 82.9 67.5 88.6 68.6z" class="b"/><path d="M100.1 72.6c-0.9-1-1.4-1.5-2.2-2.1 12.4-3.9 26.6-6.3 38.8-10.6 0.6-0.1 0.8-0.2 1.3 0.2 -1.2 0.6-2.6 1.5-3.7 2.1 -1.5 0.9-1.7 1.1-2.9 2.1 0 0.1-1.1 0.2-1.1 0.3C120.9 67.9 109.6 69.6 100.1 72.6z" class="c"/><path d="M100.1 72.6c9.5-3 28-7.5 31.2-8.3 -1.7 1.4-3.1 2.7-4.5 4.5 -7.5 2-17.7 4.1-24.9 6.4C101.4 74.3 100.8 73.6 100.1 72.6z" class="d"/><path d="M148.2 55.3c-0.6 0.3-1.1 0.5-1.8 0.8 -1.4-0.4-3.8-2.4-5.7-3 -4.7-1.4-9.5-1.5-14.1-2.7 -8.7-2.3-15.5-9.2-22-14.8 -6.5-5.6-13.2-12.5-22-14.8C69.2 17.2 63.2 27.5 53.9 30.2c-5.7 1.7-13.1-0.5-18.9 1 -3.2 0.9-6 3.4-8.7 5.3 -5 3.5-9.1 6.9-15.4 8.7 3.1 4.8 11.1 3.7 16.1 6.7 3.3 2 4.6 4.9 7 7.6 4.1 5.5 10.6 9.3 18.9 11.9 13.3 2.6 19.5 9.3 29.1 14.6 2.5 1.4 7.8 4.2 10.8 3.6 1.9-0.4 5.2-4 5.6-6.8 0.5-3.3-3-8.9-6.5-8.9 -3.7 0-4 6.7 1 6.8 0.6 1.5-1.8 1.6-2.7 1.5 -1.5-0.2-4.6-2.4-4.6-4.5 0-3 2.9-6.7 5.8-6.8 6-0.1 10.6 7.9 9.7 12.9 -0.6 2.9-3.9 6.9-6.3 7.9 -6.5 2.6-17-4.9-21.5-7.9 -5.1-3.5-10.8-6.4-17.9-8.8 -10.9-3.6-18.8-7.7-24.7-14.8 -2-2.4-3.6-5.1-6.2-6.5 -2.5-1.3-6.3-1.4-9-2.8C11.9 49.2 9.8 47.2 8.1 44.1c6.8-1.4 10.7-5.8 16-9.4 3.1-2 6.1-4.8 9.6-5.9 6-1.9 13.9 0.3 19.2-1.2 9-2.6 14.7-11.2 25.9-10.3 1.4 0.1 2.5 0.3 4.3 0.8 9 2.3 16.3 9.1 23 14.8 6.4 5.4 13 12.8 22.4 15.2 6.4 1.6 12.6 1.8 18.7 6.5C147.5 54.7 147.8 54.9 148.2 55.3z" class="c"/><path d="M134 96.8c1.5 0.3 4.8-0.3 6.7-0.8 1.9-0.5 3.2-1.7 5.6-2.7 4.7-2 13.1-2.4 13-7.5 -0.1-2.4-8.1-4.9-9.9-5.1 2.9-6.6 9.8 1.7 12.4 3.4 -1.1 8.9-10.5 9.1-16.9 12.5 -4.5 2.4-9.8 3.1-16 2.8C133 98.8 133.1 98 134 96.8z" class="d"/><path d="M183.4 95.2c1.9 15.3 25.6 14.6 38.3 10.7 8.1-2.5 15.3-6.3 18.7-12.1 -5.5-0.5-10.3 1.3-17-0.3 -5.4-1.3-8.4-6.4-13.2-6.5 -1.2 0-2.5 0.4-3.7 1.2 0.3-0.3 1.9-2.6 3.3-2.9 6.4-1.6 8.9 4.4 12.9 5.6 7 2.1 14-0.4 20.9 1.5 -3.7 8.8-11.9 12.6-21.3 15.5 -13.3 4.2-40.5 6-41-13.4C182.1 94.6 182.8 94.9 183.4 95.2z" class="d"/><path d="M202.4 91.6c1.6-1.3 2.5-2.2 4-3.4 1-0.8 2.5-1.2 3.7-1.2 4.8 0.1 7.9 5.2 13.2 6.5 6.7 1.6 11.5-0.2 17 0.3 -3.4 5.7-10.6 9.6-18.7 12.1 -12.6 3.9-36.8 5.3-38.3-10.7 0.8 0.1 1.6 0.4 2.4 0.5 0.4 5.4 5.2 8.7 11 10 14.2 3.1 31.2-3.2 38.7-9.5 -3.5-0.1-7.9 0.7-13.1-0.6 -6.1-1.5-7.9-6.3-13.2-6.5 -1.8-0.1-5.4 1.4-5.6 3.9 -0.1 2.8 3.8 2.5 5.1 0.6 0.1 0 0.3 0.1 0.6 0.4 0.6 0.3 0.5 0.4 1 0.9 -1.5 5.2-9.6 2.2-9-1.3C201.6 92.6 201.6 92.1 202.4 91.6z" class="c"/><path d="M202.1 91.8c-0.3 0.4-0.6 1-0.6 1.9 -0.1 3.4 5.3 5 7.6 3 0.6-0.8 0.9-0.8 1.3-1.9 2.8 4.2-7.9 8.7-10.9 3.7 -1.5-2.5-0.6-4.8-0.6-4.8C200.4 92.9 200.2 93 202.1 91.8z" class="d"/><path d="M208.3 93.3c-0.2-0.7-2.2-0.1-1.7-1.3 5.8-2.4 8.8 3.9 14.9 5.5 2 0.6 4 0.6 6.7 0.9 -7.5 3.4-18.7 7.2-29.9 5.2 -4.5-0.8-9.1-2.9-10-7.1 0-0.6-0.1-0.4 0-0.6 5 0.3 7.8-1 10.6-2.2 -0.1 2.4 0 4.3 1.1 5.4C204.8 103.8 215.8 96.7 208.3 93.3zM195.9 102.8c11.8 3.1 23.2-1 31.2-4 -7.7 0.5-11.4-5.2-15.9-6.7 -1.1-0.4-3.1-1-4.2 0.2 10.6 2.5-1.5 13-7.3 7 -1-1-1-2.5-1.5-4.2 -2.9 1-5.9 1.8-9.6 1.7C189.1 99.7 192.3 101.9 195.9 102.8z" class="a"/><path d="M124.3 88.7c-0.1 0.7-0.1 0.7-0.2 1.5 -3.9-0.4-7.2-4-11.3-4.9 -2.3-0.5-11.6 0-8.9-3.3 2.8 2.2 7.2 1 10.1 1.8 3.7 1 4.3 2.6 7.7 4.2C122.5 88.2 124 88.7 124.3 88.7z" class="d"/><path d="M141.1 90.3c0.1-2-0.8-3.5-1.5-4.9 2.7-1.2 4.1-1.9 6.4-2.8 2.4 1.2 4.7 3 7.4 3.9 -3.4 2.2-9.1 3.5-12.5 4.7C141 91 141 90.8 141.1 90.3zM141.9 90.9c3.2-2.1 7.6-2.3 11-4.2 -2.5-0.9-4.3-2.4-6.4-3.6 -2 1.1-4.2 1.8-6.1 2.8C141.5 87.1 141.3 89.3 141.9 90.9z" class="a"/><path d="M134.9 92c5.6 1.6 3.5-7.2 0.6-4.7 1-0.9 2.7-1.6 4.1-1.9 2.5 3 2.9 10.5-4.9 9.5C134 94.4 135.1 93.2 134.9 92z" class="d"/><path d="M134.4 90c-0.4-0.5-0.8-0.8-0.8-1.6 0.6-0.3 1.2-0.7 1.7-0.9 0.3 0.2 0.3 0.2 0.6 0.6 0.5 0.5 0.6 1.3 0.3 1.8C136 90.1 134.8 90 134.4 90z" class="b"/><path d="M103.7 80.2c-0.2-0.5-0.2-1-0.2-1.2 1.4-0.8 2.5-1.5 4.1-2.7 1.5-1.1 2.5-3.1 3.8-3.8 0.8-0.2 1.2-0.3 2.4-0.6C111.3 75.7 106.8 78.4 103.7 80.2z" class="c"/><path d="M132 86.4c0.2 0.1 0.5 0.1 0.4 0.3 2.9-0.9 6-2.3 8.9-3.5 2.9-1.2 6.5-3 8.3-5 0.8 0.2 2.1 0.6 2.6 1 -5.3 3.6-13 6-18.7 9.1C133.2 87.6 132.5 87.1 132 86.4z" class="d"/><path d="M185.9 65.9c-0.9 1.7 0 3.1 2.3 3.1 4.3 0 4.7-8.7 1.5-10.8 0-0.3-0.2-0.2 0.4-0.1 2.1 0.6 4.1 2.5 7.8 2.8 2.4 0.2 5.4 0.5 7.8 1.4 0.7 0.6-0.7 0.9-0.9 1.1 -4 3.2-7.7 7.6-11.2 10.9 -7.7 0.8-14.7-3.4-20.4-6 4-2 12.1-5.1 13.3-3.7C186.3 65.1 186.2 65.5 185.9 65.9z" class="a"/><path d="M186.1 68.1c-0.2 0.2-0.4-0.4-0.5-0.5 -0.3-0.4 0-1.7 0.4-2 3.3-6.2-5.5-2.4-9-1 -3.4 1.4-5.8 3.4-8.4 3.3 1.6 1 1.7 1.2 3.8 2.2 2.4 1.2 3.5 2 5.7 3.2 3.2 1.8 7.3 3.2 12 3.6 6.7 0.5 8.6-5.5 13.1-9.1 3.3-2.7 7.8-5.4 12.1-6.2 -5.5-3.8-12.4-2-18.7-3.3 -7.1-1.5-12-7.2-18.9-8.4 0.3-0.5 0.6-1.1 0.9-1.5 6-0.4 11.9 6.1 17.9 7.5 2.4 0.6 4.9 0.3 7.2 0.5 6.5 0.7 11.9 3.3 16 6.2 -6.1 0.7-11 3.3-15.5 7.5 -3.1 3-6 7.6-9.8 8.7 -10.5 3-21.3-6.4-29.3-10.5 3-3.6 8.7-4.8 13.4-6.9 1.9-0.9 5.5-2.5 7.6-1.8C188.8 60.5 189.9 66.3 186.1 68.1z" class="c"/><path d="M165.8 50.4c0.2 0.2-0.8 0.5-1.2 0.5 -1.2 0.1-6.7 3.1-9.1 4.1 -10.1 4.5-22 8.7-28.8 16.6 2.6 0.5 4.4 1.8 6.2 2.3 6.4 1.9 10.3 0.3 15.8 1.6 13 3.1 22.3 13.8 34.8 17.1 11.8 3.1 16.8-2.7 23.1-7.9 1.6-1.3 3.9-3.3 5.8-4.1 4.1-1.8 10.4-1 15.3-3.6 7.4-4 11-13 19-16.6 -1.9-2.2-4.4-4-7.9-4.8 -2.3-0.5-5 0-7.4-0.8 -2.5-0.9-4.4-3.4-6.9-5.4 -2.3-1.8-4.8-3.3-7.7-4.5 -6-2.5-13.9-2.8-21.4-4.5 -7.7-1.8-13.9-7-22.2-8.1 -5.5-0.7-9.9 2.7-9.9 9.2 0 3.6 5 9.7 9.9 8.8 2.4-0.4 4.4-4 3.9-6.6 -0.6-2.7-5.5-4.4-6.6-1.4 0 0.1 0 0.2 0 0.2 -0.3 0-0.4-0.1-0.4-0.3 -1.9-6 7.9-3.7 9.2 0.2 1.8 5.1-2.7 10-5.7 10.4 -6.9 0.9-13.3-6.8-12.7-12.5 0.5-4.6 4.3-9.8 8.2-10.5 7.4-1.3 16.3 4.3 22.4 6.9 6 2.5 14.6 2.7 21.2 4.2 4.5 1.1 7.9 2.7 10.8 4.8 3.8 2.7 6.3 6.3 11.1 7.6 2.3 0.6 5.6 0.4 7.4 1.1 3.1 1.1 5.3 3.8 7.4 6.4 -1.8 0.7-4 2.1-5.5 3.3 -3.7 3.2-4.9 5.4-7.9 8.8 -2 2.3-4.1 4.7-6.4 6.2 -4.6 2.8-10.7 1.7-15.8 3.8 -4.8 1.9-7.6 6.4-11.8 9.1 -4.2 2.7-9.1 4.9-16 3.8 -7.6-1.3-13.9-5.3-19.9-8.9 -5.5-3.3-11.4-8-19.1-9.2 -5.3-0.8-10.3 0.2-15.1-1.4 -2.5-0.8-5.2-2.4-8.1-3.3 3.8-8.6 12.8-12.1 20.5-15.7 6.4-3 13.5-6.1 19.5-8.8C164.3 49 164.7 49.5 165.8 50.4z" class="d"/><path d="M132.4 76.3c0.6 0.2 0.8 0.2 1.7 0.4 -3 2.8-5.6 3.9-9.3 5.2 -2.5 0.9-5.3 2.8-7.3-0.1 -0.9-1.3-0.9-4 0.4-5.5 0.5-0.5 1.4-0.7 2.3-0.3 0.3 0.1 0.3 0.3 0.4 0.6 -3.2 0.1-2.1 4.2-0.8 4.7 2.3 1 11.4-3.5 12-4.2C131.8 76.9 132.3 76.6 132.4 76.3z" class="d"/><path d="M120.2 76c-3.3-1-3.7 3.5-2.8 5.5 0.1 0.4 0 0.2 0.3 0.4 -2.2-0.9-6-1.4-9.1-2.1 -0.5-0.6 0.8-1.1 1.2-1.5 1.9-1.8 4-4.1 5.7-5.8 4.6-0.6 8.9 2 12.3 3.6 -2.4 1.1-4.8 2.3-8 2.3 0.5-0.3 0.8-0.9 0.8-1.8C120.5 76.4 120.4 76.1 120.2 76z" class="a"/><path d="M102.8 77.1c-0.2-0.4-0.5-1.2-0.9-1.8 1.7-0.5 3.7-1.3 5.7-1.7C106.5 74.6 104.5 76.9 102.8 77.1z" class="a"/><path d="M73.9 58.1c0 0 0.5 0.6 0.5 0.6 -0.4 0-3.6-2.5-5.4-3.4 -4.5-2.3-9.8-3.1-13.2-5.3 2.9-1.7 5.8-2.9 8.7-5 2.3-1.7 6.3-5.8 8.6-6 8.2-0.8 16.5 7.9 21.9 11.2 -4.8 1-10.3 2.6-16.1 1.3 0.3-0.5 0.9-1.3 1.2-1.8 1.1-3.2-5-3.9-6.8-0.3 -0.5 0.7-0.8 2.5-0.9 3.4C72.4 54.9 72.9 56.7 73.9 58.1z" class="a"/><path d="M185.7 64.5c-0.9 0-1.1 0.1-2.1 0.3 -4.7 1-6.4 1.7-10.4 3.5 5.6 2.6 12.7 6.9 20.4 6 3.5-3.4 7.2-7.8 11.2-10.9 0.2-0.2 1.6-0.4 0.9-1.1 -2.4-0.9-5.4-1.2-7.8-1.4 -3.7-0.3-5.7-2.3-7.8-2.8 -0.1 0-0.2 0-0.4 0.1 -0.9-0.6-1.3-0.8-2.3-1.3 -3-1.9-8.6-5.5-12.9-4.4 1.4-0.7 2.4-1.6 3.3-2.6 6.9 1.2 11.8 6.9 18.9 8.4 6.2 1.3 13.2-0.5 18.7 3.3 -4.2 0.8-8.8 3.4-12.1 6.2 -4.4 3.7-6.3 9.7-13.1 9.1 -5.6-0.5-8.6-1.7-12-3.6 -1.9-1-2.9-1.6-4.7-2.6 -2.1-1.2-1.8-0.9-4.9-2.8 3-0.5 5-2 8.4-3.3 3.6-1.4 11.3-4.7 9.5 0C186.3 64.5 186.1 64.4 185.7 64.5z" class="b"/><path d="M157 51.4c-1.4 0.8-1 0.5-2.5 1.1 -0.5-0.2-0.4-0.2-0.9-0.5 -4.9-3.3-12.2-6.8-21.1-8.4 -1.1-0.3-1.4-0.3-2.4-0.6 -1.6-0.4-2.4-0.7-3.4-1.2 -1.3-0.6-1.3-0.6-2.3-1.1 -0.1 0-2.4-1.5-2.4-1.5 -1.8-1.3-2.2-1.6-3.8-3 -2.8-2.2-5.6-6-10.8-5.8 -0.9-0.8-1.7-1.4-2.6-2.3 9.4-1.4 13.5 6.3 18.2 9.6 3.7 2.6 9 3.7 14.7 5C145.2 44.5 150.7 48 157 51.4z" class="b"/><path d="M171.3 29.6c-1.5 0-4.4 0.7-5.8 2 0.7-1.4 5.5-4.7 7-6.6 -7.9-4.1-14.8-11.7-24.4-12.7 -8.2-0.8-10.5 5.3-16.5 9.3 -3.7 2.5-8.4 3.2-13.4 4.3 4.9 4.4 8.3 7 16.2 9.2 1.9 0.5 3.9 0.9 5.8 1.5 5.5 1.8 9.4 7.2 15.1 8.2 -0.6 3.4 0.6 5.2 2.5 6 -0.2 0.1-0.6 0.3-1 0.4 -6.3-3.3-11.8-6.8-19.2-8.5 -5.7-1.3-11-2.4-14.7-5 -4.8-3.3-8.7-10.8-18.2-9.6 -0.2-0.2-0.1-0.1-0.2-0.2 2.1-1.8 4.7-4.1 6.8-5.9 2.1-1.7 4.4-4.1 6.7-4.9 3.6-1.2 8.5-0.2 12.4-1.5 6.9-2.1 11-10.5 19.9-9.2 6.3 0.9 11.8 5.5 16.9 9.3 7.8 5.7 14.7 10.5 27.8 11.2 -4.3 1.4-9.3 3.9-14 4.9 -2.2-0.7-4.4-1.5-6.6-2.1C173.7 29.8 172 29.6 171.3 29.6z" class="a"/><path d="M102.8 26.5c-0.6-0.5-0.7-0.6-1.2-1 4.4-3.2 9.8-10.1 15.1-11.9 3.8-1.3 8.7-0.5 12.2-1.5 8.3-2.4 12.1-12.1 24.2-8.9 5.8 1.5 11.4 5.6 16.4 9.2 4.6 3.3 9.5 7.8 16.2 9.2 5.5 1.1 11.3 1.1 16.5 4.4 -3.6 4.3-10.3 6.3-15.3 8.8 -0.9-0.3-1.3-0.6-2-0.9 3.3-3.3 10.3-3.7 15-7.5 -5.8-2.9-11-1.6-16.5-3.2 -12-3.3-18.7-14.7-30.2-18 -11.4-3.3-14.7 5.1-22.2 8.3 -3.6 1.5-9.8 0.4-14.3 2.1C111.6 17.6 107.9 23.8 102.8 26.5z" class="c"/><path d="M163.7 48.3c-0.7 0.3-1.9 1-2.8 1.3 -5.7 0.5-2.9-9.4-0.1-8 0.1 0.4 0.1 0.6 0.1 1.1 -1.7 1.6-1.3 1.7-1.7 2.6C159.3 47 162.6 47.2 163.7 48.3z" class="c"/><path d="M163.7 48.3c-1 0.4-4.2-0.7-4.5-3.1 0.2-1.1 0.6-1.6 1.7-2.6C161.4 44.9 162.7 46.1 163.7 48.3z" class="b"/><path d="M150.9 26.9c-0.1 0.3-0.1 0.1-0.2 0.5 4.1 0.9 8.1-0.9 11.5-1.9 -4.4-2.1-10.6-7.9-16.6-6.8 -2 0.4-4.2 3.4-6 4.8 -2.3 1.9-4.1 3.2-6.2 4.5 4.4 1.8 11 1.3 13.8 4.2 0.5 0.3 0.7 0.6 1.4 1.2 0.9 0.7 1.6 1.3 2.4 1.9 2.5 2 5.7 2.6 10 3.3 -2.4 0.9-3.6 1.8-4 2.4 -6.4-1.9-10.7-8-17.4-9.4 -4.9-1-10.7-0.9-14-3.4 0.6-0.8 2.1-0.4 3-0.7 2.5-1.5 5.2-2.6 8.1-4.7 2.5-1.8 4.9-5.1 7.2-6 6.3-2.6 15.2 4.4 19 7.2 2 0.2 3.3 1 3.7 2.4 -2.3 0.7-4.8 0.6-7.8 1.5 -2.9 0.9-7.5 3.3-8.9 0.6 0.2-1.1 0.5-1.8 1.1-2.2C151 26.6 150.9 26.7 150.9 26.9z" class="b"/><path d="M148.8 33.4c-0.6-0.4-0.7-0.6-1.4-1.2 -2.9-2.8-9.4-2.4-13.8-4.2 2.1-1.3 3.9-2.6 6.2-4.5 1.7-1.4 4-4.4 6-4.8 6-1.1 12.2 4.7 16.6 6.8 -3.5 1-7.5 2.7-11.5 1.9 0.1-0.3 0.2-0.5 0.3-0.8 0.2-0.5 0.4-0.6 0.4-1.4 -1-1.1-3.6-1.3-4.7 1.2 -0.5 1.3-0.5 3-0.3 3.9C146.9 31.7 148 32.4 148.8 33.4z" class="a"/><path d="M148.8 33.4c5.3 2.4 15.5-2.2 18-3.2 -1.3 1.4-5 5.6-5.6 8.5 -0.8 0.3-1.7 0.3-2.7 0.3C154.1 38.2 151.3 35.4 148.8 33.4z" class="a"/><path d="M182.1 99.6c-2.6 2.8-5 4.4-12.8 3.8 -1.7-0.1-4.6-0.6-6.8-1.2 -3-0.7-8.9-2.2-12.1-7.6 1.1-0.3 1-0.4 1.7-0.6 1.4 1.7 1.7 2 2.9 2.9 1.7 1.2 3.3 1.9 5.9 2.6 2 0.6 6.3 1.5 8.4 1.8 5.8 0.3 8.9 0.1 12.3-4C181.7 97.9 181.8 98.8 182.1 99.6z" class="d"/><path d="M134 96.8c0.2-0.7 0.4-1.3 0.7-1.8 1.8 0 3.8-0.2 5-1.1 3.2-0.5 5.9-2.4 9.1-3.3 3.2-0.9 6.4-1.7 8.6-4.3 -3.1-2-6.8-2.9-9.1-4.7 0.5-0.3 0.8-0.4 1.3-0.7 0.6 0.1 1 0.2 1.1 0.2 1.8 0.1 8.7 2.4 8.8 4.9 0.1 5.1-8.3 5.5-13 7.5 -2.4 1-3.7 2.2-5.6 2.7C138.8 96.5 135.6 97.1 134 96.8z" class="c"/><path d="M101.1 90.1c0.4-0.5 0.5-0.7 0.8-1.1 3.6 1.7 9.2 1.8 14.5 3.2 4.7 1.3 10.1 5.9 13.9 4.2 3.4-1.5 2.1-8-2.1-7.7 -2.1 0.9-0.7 3.5 1.2 3.1 0.1 0.2 0.2 0.4 0.1 0.8 -1.3 0.7-3.4-0.2-3.9-1.2 -0.5-7.5 8.5-3.4 8.3 1.2 -0.1 3.1-2.4 5.5-4.9 5.5 -4.6 0-8.5-3.5-14.2-4.9C110.2 92 104.4 91.9 101.1 90.1z" class="c"/><path d="M129.3 91.8c-1.9 0.4-3.2-2.2-1.2-3.1 4.1-0.3 5.4 6.2 2.1 7.7 -3.8 1.7-9.2-2.9-13.9-4.2 -5.3-1.5-10.9-1.5-14.5-3.2 0.3-0.6 0.6-1.1 0.8-1.6 3.1 2.1 9.8 2.3 13.9 3.4 4.5 1.2 7.9 4.3 12.6 4.4 2.8-0.3 1.8-5-0.4-4.7C128 90.8 129.2 91.4 129.3 91.8z" class="b"/><path d="M148.7 95.2c0.4-0.2 0.5-0.2 1-0.4 0.3-0.1 0.5-0.3 0.7-0.2 1.2 1.5 2.2 3.2 4.2 4.4 1.7 1.1 3 1.9 6.4 2.8 2.3 0.6 4.4 1.1 8.3 1.6 6.1 0.3 9.6-0.3 12.8-3.8 0.1 0.2 0.3 0.7 0.5 1.3 0.1 0.3 0.5 0.8 0.5 1C177.9 108.7 151.4 104.8 148.7 95.2z" class="c"/><path d="M129.7 93.5c-0.2 0.7-1.9 1.2-3.4 0.5 -3-0.1-3.4-7.3 0.9-8.4 8.7-2.2 10.9 14.1 1.7 13.9 -6-0.1-9.5-3.7-14.9-5.1 -2.4-0.6-5-0.9-7.3-1.3 -2.1-0.4-4.9-0.4-6.3-2.1 0.2-0.3 0.5-0.7 0.8-1 3.3 1.8 9.1 2 13.6 3.1 5.8 1.5 9.6 4.9 14.2 4.9 2.5 0 4.7-2.4 4.9-5.5 0.2-4.7-8.8-8.7-8.3-1.2 0.6 1 2.7 1.9 3.9 1.2 0.1-0.3 0-0.5-0.1-0.8C130.5 92 129.8 93.3 129.7 93.5z" class="d"/><path d="M139.7 93.9c0.6-0.9 1.2-1.2 1.5-2.8 0.2-0.1 0 0 0.3-0.1 3.2-1.4 8.6-2.3 12-4.5 -2.7-0.9-5-2.7-7.4-3.9 1-0.5 1-0.4 1.4-0.7 0.4-0.2 0.8-0.4 0.9-0.4 0.5 0.2 0.1 0 0.6 0.3 2.3 1.8 6.2 2.6 8.5 4.4 -2.1 2.6-5.4 3.4-8.6 4.3C145.7 91.5 142.9 93.4 139.7 93.9z" class="b"/><path d="M102.7 87.4c0.5-1.5 0.8-2.1 1.1-3.9 2.9 1.8 6.4 1.2 8.9 1.7 4.1 0.8 6.9 4.3 11.4 4.9 -0.3 3.9 5.7 5.6 5.9 2.4 -0.1-0.5-0.4-0.7-0.7-0.8 -0.1-0.4-1.3-1-0.5-1.3 2.2-0.3 3.2 4.4 0.4 4.7 -4.7-0.2-8.2-3.2-12.6-4.4C112.5 89.7 105.8 89.5 102.7 87.4z" class="a"/><path d="M208.8 93.5c-1.3 1.9-5.2 2.2-5.1-0.6 0.1-2.5 3.7-4 5.6-3.9 5.4 0.2 7.2 4.9 13.2 6.5 5.1 1.3 9.5 0.5 13.1 0.6 -7.5 6.3-24.5 12.6-38.7 9.5 -5.9-1.3-10.5-4.5-11-9.5 0-0.3 0 0 0-0.5 0.5 0.1 1.5 0.2 2.4 0.3 0.7 4.9 5.4 6.9 10 7.7 11.3 2 22.4-1.8 29.9-5.2 -2.7-0.3-4.6-0.4-6.7-0.9 -6.1-1.7-9.3-7.7-14.7-5.6 -0.2 0.8-0.1 0.6 1.4 0.9C208.3 93 208.6 93.1 208.8 93.5z" class="b"/><path d="M131.9 86.4c-0.2-0.2-0.2-0.2-0.5-0.3 5.2-2.9 11.8-5.3 17-8.2 0.5 0.1 0.8 0.1 1.3 0.3 -1.8 2-5.5 3.8-8.3 5 -2.9 1.3-6 2.8-8.9 3.6C132.2 86.6 132.2 86.6 131.9 86.4z" class="c"/><path d="M131.4 86.1c-1.1-0.3-1.6-0.9-4.2-0.5 3.1-0.5 10.2-3.9 13.6-5.4 1-0.5 4.2-1.7 5.2-2.7 1.1 0.1 1.2 0.1 2.2 0.4C143.3 80.8 136.6 83.2 131.4 86.1z" class="b"/><path d="M118.5 82.6c0.3 0.3 0.7 0.4 1.1 0.6 1.7 1.2 3.7 2.4 6.6 2.7 -0.8 0.6-1.3 1.1-1.6 1.7 -5.7-3.3-11.6-6.4-20.1-6.3 -0.2 0-0.6-0.1-0.8-0.1 0-0.4-0.1-0.6-0.1-1 3.2-1.8 7.8-5.2 10.2-8.2 2.7-0.8 2.2-0.5 4.8-1.1 1.1 0.4 1.1 0.5 2.6 1 0.8 0.3 1.4 0.4 3.1 1.1 2.6 0.8 4 1.8 7.1 3.1 -2.3 1.4-8.2 3.8-11.5 3.9 0-0.6-0.8-0.7-0.5-1.5 0.1 0 0.2 0 0.2 0 3.2 0 5.6-1.1 8-2.3 -3.4-1.6-7.6-4.2-12.3-3.6 -1.7 1.8-3.7 4-5.7 5.8 -0.5 0.4-1.7 0.9-1.2 1.5 3.1 0.7 6.9 1.3 8.8 1.7 0.1 0.1 0.1 0.2 0.3 0.4C118.1 82.3 118.2 82.5 118.5 82.6z" class="b"/><path d="M121.2 83.1c4.8-1.4 9.4-3.1 12.9-6.4 3.7 0.7 7.8 0.2 12 0.7 -0.5 0.9-4.2 2.3-5.2 2.7 -3.4 1.5-10.3 4.8-13.4 5.4 -0.8 0.2-0.6 0.1-1.2 0.4 -2.9-0.3-5-1.5-6.6-2.7C120 83.3 120.5 83.3 121.2 83.1z" class="a"/><path d="M120.6 76.6c0 0.9-0.3 1.5-0.8 1.8 -0.1 0-0.2 0-0.2 0 -0.4 0.9 0.4 0.9 0.5 1.5 3.3-0.1 10.3-3.2 11.5-3.9 0.1 0 0.8 0.3 0.9 0.3 -0.2 0.2-0.6 0.6-0.7 0.8 -1.5 1.5-9.6 5.2-12 4.2C118.4 80.8 117.4 76.7 120.6 76.6z" class="c"/><path d="M75.4 59.7c5.2 1.9 8.4 0.6 13-0.5 3-0.7 7.3-0.5 9.6-1.1 4.5-1.2 6.5-2.7 11.3-6.7 -3.2-2.1-4.9-3.5-7.6-5.8 -2.3-2-5.2-4.5-7.7-6.5 -7-5.4-14.8-9.2-21.9-8.4 -1.8 0.5-5.5 1.8-6.2 2.4 -1 0.8-2.8 2-3.7 2.7 -2 1.5-2.7 2.2-4.6 3.3 -5.8 4.1-13.1 6.1-22.4 6 1.4 1.8 2.5 3.2 3.1 3.8 6.1 5.7 11.9 9.2 19.3 11.3 1.8 0.4 4.8 1.1 6 1.6 8.6 3.1 10.5 10.6 19.3 13.6 -1.1 4.8 1.9 9.3 6.9 9.2 1.9 0 3.8-1.4 3.7-3.6 0-0.3-0.2-0.5-0.6-0.6 -0.7-0.8-1.4-1.5-1.2-2.9 4.9 0.7 5.2 9.1 0.3 9.4 -2.6 0.2-6.6-2.1-9.1-3.6 -2.5-1.4-5.4-3.2-7.5-4.7 -4.7-3.4-10.9-6.1-16.9-8.1 -7-2.3-12.4-3.8-17.4-7.7 -4.6-3.6-6.9-8.7-11.3-12 -3.1-2.3-9.8-3.2-12.9-4.5 1-1.6 2.9-2 4.4-3.1 1.5-1 3.1-2.2 4.7-3.3 3-2.1 6.4-5.2 9.6-6.1 3.3-0.9 7.2 0 10.7-0.1 3.4 0 6.7-0.4 9.5-1.5 7.9-3.1 14.3-12.1 26.4-8.7 8.5 2.4 15 9.5 21.7 15.3 6.4 5.5 13.5 12.1 22.6 14.5 3.9 1 8.1 1.2 12.9 3 -10.5 3.4-21.7 5.9-33.2 8.8 -4.1 1-9.3 3-13.6 3.1 -2.4-0.2-2.4 0.2-4.1 0.5C82.9 67.5 78 62.3 75.4 59.7z" class="a"/><path d="M167.8 51.7c0.8 0.4 0.8 0.4 1.6 0.7 0.8 0.2 1.4 0.3 1.9 0.4 -11.7 5.5-24.6 10.9-36.1 16.6 4.6 1.3 8.2 0.4 12.3 0.9 16.2 2.3 24.4 15.7 39.4 18.2 10.2 1.7 14.2-6.6 21.2-11.1 4.8-3.1 12.2-1.8 17.4-4.5 2.6-1.4 4.7-4.2 7-6.3 2.3-2.2 4.4-4.5 6.8-6.6 -2.9-0.5-9.2-0.8-12-2.4 -4.9-2.7-8.9-8.3-17.2-10.3 -2.5-0.6-5.8-1.2-9-1.6 -7.8-1-12.6-2.9-18.3-5.4 -3.5-1.5-8.8-4-12.1-3.3 -4.3 0.8-3.1 7.4 1 8 0.8-0.9-0.5-1.9-1.3-2.4 0-0.1 0-0.2 0-0.2 2.4 0.2 3.5 1.3 4.2 2.7 -0.5 1.3-1 2.7-2.2 3 -6.9-1.1-8.3-8.9-3.5-13.1 11.9-1.2 20.7 8.5 36.4 9.3 1.5 0.3 3 0.5 4.5 0.8 0.2 0 0.5 0.1 0.7 0.1 0.8 0.1 1 0 1.8 0.3 0.1 0 1.1 0.2 1.2 0.2 0.7 0.2 0.9 0.1 1.9 0.6 0.1 0 1.2 0.5 1.3 0.5 1.2 0.5 1.8 0.7 3.1 1.7 0.4 0.2 1.3 0.9 1.4 0.9 0.7 0.6 0.8 0.6 1.8 1.5 2.5 1.3 4.1 4.7 7.2 5.8 4.5 1.6 10.1-0.1 14.1 2.7 -1.5 2-3.9 2.6-5.9 4.3 -1.9 1.7-3.6 3.9-5.7 5.8 -2 1.9-3.8 4.4-5.9 5.5 -4.5 2.5-10.4 1.6-14.4 3.1 -8.8 3.2-13 14.9-25.6 12.8 -7.3-1.2-13.5-5.2-19.8-9.1 -5.7-3.5-11.7-8-19.8-9.1 -5.9-0.8-11.3 0.8-17.5-1.4 0.9-1.9 2.6-3.7 4.5-4.6 1-0.5 2.2-0.3 3.3-0.6 2.3-0.8 4.7-2.6 7.3-3.8C151.6 58.8 161.1 55.3 167.8 51.7z" class="b"/><path d="M166.7 51c0.4 0.2 0.6 0.3 1.1 0.6 -6.8 3.6-16.2 7.1-23.3 10.6 -2.5 1.3-4.9 3.1-7.3 3.8 -1.1 0.4-2.3 0.2-3.3 0.6 -1.9 0.9-3.6 2.7-4.5 4.6 6.3 2.2 11.6 0.6 17.5 1.4 8.1 1.1 14.2 5.6 19.8 9.1 6.3 3.9 12.5 7.9 19.8 9.1 12.7 2.1 16.9-9.6 25.6-12.8 4-1.4 9.9-0.6 14.4-3.1 2-1.1 3.9-3.7 5.9-5.5 2.1-1.9 3.8-4.2 5.7-5.8 2-1.8 4.3-2.3 5.9-4.3 -4.1-2.8-9.6-1.1-14.1-2.7 -3.1-1.1-4.8-4.1-7-5.6 -1.4-1.1-1.6-1.3-2.6-2 -0.7-0.4-1-0.7-1.4-0.9 -0.8-0.5-1-0.6-2-1 -0.5-0.2-1-0.4-1.6-0.6 -0.7-0.3-0.7-0.3-1.5-0.5 -0.4-0.1-1.7-0.4-1.8-0.4 -1-0.2-0.9-0.2-1.9-0.3 -0.2 0-0.5-0.1-0.7-0.1 -1.8-0.3-2.5-0.4-4.5-0.8 -16.5-0.8-24.5-10.5-36.4-9.3 -4.8 4.2-3.3 11.9 3.5 13.1 1.2-0.3 1.7-1.7 2.2-3 -0.7-1.4-1.7-2.5-4.2-2.7 1.1-3 6-1.3 6.6 1.4 0.5 2.6-1.4 6.2-3.8 6.6 -4.9 0.9-9.9-5.2-9.9-8.8 0-6.5 4.4-9.9 9.9-9.2 8.3 1.1 14.5 6.3 22.2 8.1 7.5 1.7 15.4 2 21.4 4.5 3 1.2 5.5 2.7 7.7 4.5 2.4 1.9 4.4 4.5 6.9 5.4 2.4 0.9 5.1 0.3 7.4 0.8 3.6 0.8 6 2.6 7.9 4.8 -8 3.6-11.6 12.6-19 16.6 -4.8 2.6-11.1 1.9-15.3 3.6 -1.9 0.8-4.2 2.8-5.8 4.1 -6.3 5.1-11.2 11-23.1 7.9 -12.5-3.3-21.8-14-34.8-17.1 -5.5-1.3-9.4 0.4-15.8-1.6 -1.8-0.5-3.5-1.8-6.2-2.3 6.8-7.9 18.6-12.2 28.8-16.6 2.3-1 9.8-5 10.3-4.6C166 50.5 166.3 50.7 166.7 51z" class="c"/><path d="M173 52.8c1.1-0.2 0.7-0.1 1.6-0.3 4.4-1.1 9.8 2.6 12.8 4.5 -4.7-0.9-7.5 1.6-11.2 3.1 -2.5 1.1-4.4 1.2-6.6 1.9 -2.9 1-5.2 4.6-8.3 7.4 3.8 1.9 6.9 3.7 10.7 5.9 3.6 2.2 5.3 2.7 10.1 4.8 2.1 0.6 3 0.8 3.8 1.1 13.6 3 15-7.3 24.6-12.7 1.4-0.8 3.1-1.9 4.7-2.5 3.2-1.3 4.3-1.8 8.9-2.4 -4.5-3.7-8.4-6.8-15.5-8.6 -0.5-0.1-1-0.3-2.5-0.6 -0.8-0.1-2.7-0.4-3.5-0.5 -1.5-0.1-3.2-0.1-4.7-0.3 -8.5-1.7-8.2-5.9-18.1-8.7 0.2-6.5-11.7-9.1-9.6-2.7 0 0.2 0.1 0.3 0.4 0.3 0.8 0.5 2.1 1.5 1.3 2.4 -4.2-0.5-5.3-7.2-1-8 3.3-0.6 8.6 1.8 12.1 3.3 5.7 2.5 10.5 4.4 18.3 5.4 3.2 0.4 6.5 1 9 1.6 8.3 2 12.3 7.6 17.2 10.3 2.8 1.6 9.1 1.8 12 2.4 -2.4 2.1-4.5 4.4-6.8 6.6 -2.2 2.1-4.4 5-7 6.3 -5.2 2.7-12.6 1.4-17.4 4.5 -7 4.5-11.1 12.8-21.2 11.1 -15-2.5-23.2-15.9-39.4-18.2 -4.1-0.6-7.7 0.4-12.3-0.9 11.5-5.7 24.4-11.2 36.1-16.6C172.2 52.9 172.5 52.9 173 52.8z" class="a"/><path d="M33.9 59.6c-2.5-2.4-3.6-5.6-7-7.6 -5-3-13-1.9-16.1-6.7 6.3-1.8 10.4-5.2 15.4-8.7 2.8-1.9 5.6-4.4 8.7-5.3 5.9-1.6 13.3 0.7 18.9-1 9.3-2.8 15.3-13.1 28.7-9.6 8.8 2.3 15.5 9.2 22 14.8 6.5 5.6 13.3 12.5 22 14.8 4.7 1.3 9.4 1.4 14.1 2.7 1.9 0.6 3.3 1.9 5.7 3 -3.6 1.8-6.1 2.9-8.5 4.1 -0.5-0.3-0.8-0.3-1.3-0.2 -12.2 4.2-26.4 6.7-38.8 10.6 -1.2-1-3.1-2-5.2-2.4 4.3-0.1 9.4-2 13.6-3.1 11.5-2.9 22.8-5.3 33.2-8.8 -4.8-1.8-8.9-2-12.9-3 -9.1-2.3-16.2-8.9-22.6-14.5 -6.7-5.8-13.2-12.9-21.7-15.3 -12.1-3.4-18.5 5.7-26.4 8.8 -2.8 1.1-6.1 1.5-9.5 1.5 -3.6 0-7.5-0.8-10.7 0.1 -3.2 0.9-6.6 4-9.6 6.1 -1.6 1.1-3.2 2.3-4.7 3.3 -1.5 1.1-3.5 1.5-4.4 3.1 3.1 1.3 9.8 2.2 12.9 4.5 4.4 3.3 6.7 8.4 11.3 12 5 3.9 10.4 5.4 17.4 7.7 6 2 12.2 4.7 16.9 8.1 2.1 1.5 4.9 3.3 7.5 4.7 2.5 1.4 6.5 3.7 9.1 3.6 4.9-0.3 4.6-8.6-0.3-9.3 -0.3 1.4 0.5 2.1 1.2 2.9 0 0.1 0 0.2 0 0.2 -5-0.1-4.7-6.8-1-6.8 3.4 0 7 5.7 6.5 8.9 -0.4 2.8-3.7 6.4-5.6 6.8 -3.1 0.6-8.3-2.2-10.8-3.6 -9.6-5.3-15.8-12.1-29.1-14.6C42.7 68.4 37.9 64.7 33.9 59.6z" class="b"/><path d="M150.9 24.7c0.8 0.1 0.6 1.4 0.2 1.7 -0.6 0.4-1 1.2-1.1 2.2 1.4 2.7 5.9 0.3 8.9-0.6 3-0.9 5.6-0.8 7.8-1.5 -0.4-1.3-1.7-2.1-3.7-2.4 -3.8-2.9-12.6-9.9-18.9-7.2 -2.3 1-4.7 4.2-7.2 6 -2.9 2.1-5.6 3.2-8.1 4.7 -1 0.3-2.4-0.1-3 0.7 3.3 2.5 9.1 2.4 14 3.4 6.7 1.4 11.1 7.5 17.4 9.4 -0.4 0.7-0.7 1.1-1 1.8 -5.5-1.4-9.7-7.2-15.6-8.8 -1.8-0.5-3.5-0.4-5.2-0.7 -5.5-1.1-9.9-3.5-13.4-6.8 4.7-0.4 8.1-0.9 11.6-3.3 4.7-3.2 7.9-9.1 13.5-8.8 9.3 0.5 16.1 7.4 22.3 11.5 -1.2 0.8-3.6 2.7-5.7 3.1 -4.2 1-10.6 3.9-13.4 2.5C148.2 30.6 147.4 25.8 150.9 24.7z" class="c"/><path d="M85.9 70.4c-0.3 0.4-1.5 1.7-1.7 2 -7.8-2.3-11.8-9.9-19.4-12.9 -2.3-0.9-4.7-1.1-7-1.7 -7.8-2-14.1-6.5-17.9-10.7 2-0.9 5.1 0.3 7.8-0.1 4.2-0.5 8.2-3.2 11.7-5.5 5.8-3.7 9.6-9.8 19.1-7.4 10.8 2.8 18.5 11.5 25.9 17.7 -4.6 3.5-10.4 3.3-16.7 4.9 -3 0.8-6.7 1.9-9.4 0.8 -4.5-1.9-1.6-11.2 1.9-9.2 0.4 0.7-0.3 1.6-0.6 2.1 -0.7 0.6-1.7 1.3-1.6 2.4 0 4 7.2 1.8 10.8 0.9 4.6-1.1 8.2-1.1 12.2-1.5 -2.1-2.4-2.6-2.9-4.6-4.5C91.3 43.5 83.6 37.5 75.8 36.3c-7-1.1-10.7 5.5-15.8 8.2 -4.4 2.3-9.9 4.6-15 5.1 2.5 1 3.9 2.6 7.3 3.7 4.9 1.6 8.1 1.9 11.6 2.8 6.2 1.7 11 7.3 15.2 10.5 1.9 1.4 2.5 1.6 4.3 2.6C83.5 69.3 85.3 70 85.9 70.4z" class="c"/><path d="M104.6 28c-0.7-0.5-1.1-0.9-1.8-1.5 5.1-2.9 8.8-8.8 14.1-10.9 4.5-1.8 10.7-0.6 14.3-2.1 7.4-3.2 10.7-11.5 22.2-8.3 11.5 3.3 18.2 14.7 30.2 18 5.5 1.5 10.7 0.3 16.5 3.2 -4.6 3.7-11.6 4.2-15 7.5 -1.3-0.5-3-1.2-4-1.8 4.6-1 9.6-3.5 14-4.9 -13.1-0.7-19.9-5.5-27.8-11.2 -5.1-3.8-10.6-8.4-16.9-9.3 -8.9-1.3-13 7-19.9 9.2 -3.9 1.2-8.9 0.3-12.4 1.5 -2.3 0.8-4.6 3.2-6.7 4.9C109.3 23.9 106.7 26.2 104.6 28z" class="b"/><path d="M151.8 53.7c-5.4-1.7-5.5-5.1-15.1-6.9 -1.7-0.3-3.5-0.6-5-0.9 -6.4-1.2-9.1-2.7-12.4-5.2 -1.1-0.8-1.7-1.2-2.7-2 -1-0.7-1.5-1.2-2.4-2 -0.5-0.3-0.9-0.8-1.2-1 -1.2-1.1-2.1-1.9-3.3-3 -1-0.9-1.6-1.4-2.3-2.1 5.2-0.2 8 3.6 10.8 5.8 1.9 1.6 2.7 2.2 4.7 3.6 0.7 0.4 1.2 0.8 1.3 0.8 1.1 0.5 1 0.5 2.5 1.2 1 0.5 1.3 0.6 3 1.1 1 0.2 1.8 0.4 2.8 0.7 8.9 1.6 16.3 5 22 8.9C153.6 52.9 152.7 53.3 151.8 53.7z" class="c"/></svg>