<svg xmlns="http://www.w3.org/2000/svg" width="842" height="706" viewBox="0 -92.9 842 706.1"><style>.a{fill:#FFE100;}.b{fill:#FFF;}</style><path d="M177.9-92.9h243.2 243.2c0 131.4 0 175.6 0 307 0 148.3-136.7 285.8-242.7 285.8 -0.2 0-0.3 0-0.5 0 -0.2 0-0.3 0-0.5 0 -106 0-242.7-137.4-242.7-285.8C177.9 82.7 177.9 38.5 177.9-92.9z"/><path d="M186-84.9c0 99.7 0 199.3 0 299 0 71.1 32.6 140.8 79.6 193.1C287.3 431.5 313.3 453.3 341.9 469c23.8 13.1 51.4 22.8 78.8 22.8 0.2 0 0.3 0 0.5 0 0.2 0 0.3 0 0.5 0 27.4 0 55-9.7 78.8-22.8 28.6-15.7 54.6-37.5 76.3-61.8C623.7 354.9 656.4 285.2 656.4 214.1c0-99.7 0-199.3 0-299H186z" class="a"/><polygon points="223.3 514.5 60.4 514.5 109.1 554.2 60.4 593.6 223.3 593.6 "/><polygon points="215.3 522.5 82.9 522.5 121.9 554.3 83.1 585.6 215.3 585.6 " class="a"/><polygon points="619 514.5 783.8 514.5 733.7 554.2 783.8 593.6 619 593.6 "/><polygon points="627 522.5 627 585.6 760.6 585.6 720.7 554.3 760.7 522.5 " class="a"/><polygon points="175.1 530.4 223.3 514.5 223.3 559.8 175.1 563.6 "/><polygon points="183.1 536.2 183.1 554.9 215.3 552.4 215.3 525.6 " class="a"/><polygon points="667.2 530.4 619 514.5 619 559.8 667.2 563.6 "/><polygon points="659.2 536.2 627 525.6 627 552.4 659.2 554.9 " class="a"/><polygon points="667.2 530.4 476 530.4 453.3 530.4 175.1 530.4 175.1 613.2 453.3 613.2 476 613.2 667.2 613.2 "/><rect x="183.1" y="538.5" width="476" height="66.7" class="a"/><path d="M206.4 577.3v-7h10.9v16.6c-1.1 1.7-2.6 3.2-4.6 4.5s-4 1.9-6.1 1.9c-2.6 0-4.9-0.9-6.9-2.7 -1.9-1.8-3.4-4.5-4.4-7.9 -1-3.4-1.5-7.1-1.5-11.1 0-4.3 0.5-8.2 1.6-11.6 1.1-3.4 2.7-6 4.8-7.8 1.6-1.4 3.6-2.1 6-2.1 3.1 0 5.5 1.1 7.3 3.3s2.9 5.2 3.4 9l-5 1.6c-0.4-2.1-1-3.7-2-4.9s-2.2-1.8-3.6-1.8c-2.2 0-4 1.2-5.3 3.5s-2 5.8-2 10.4c0 5 0.7 8.7 2 11.2s3.1 3.7 5.2 3.7c1.1 0 2.1-0.4 3.2-1 1.1-0.7 2-1.5 2.7-2.5v-5.3H206.4L206.4 577.3zM222 592.7v-41.8h18.6V558H227v9.3h12.6v7H227v11.4h14v7H222L222 592.7zM245.2 592.7v-41.8h7.6l4.5 28.5 4.5-28.5h7.6v41.8h-4.7V559.8l-5 32.9h-4.9l-5-32.9v32.9H245.2L245.2 592.7zM297.1 592.7h-5.5l-2.2-9.5h-10l-2.1 9.5h-5.4l9.8-41.8h5.3L297.1 592.7 297.1 592.7zM287.7 576.2l-3.5-15.5 -3.4 15.5H287.7L287.7 576.2zM299.7 592.7v-41.8h5.1v16.4h9.9v-16.4h5.1v41.8h-5.1v-18.3h-9.9v18.3H299.7L299.7 592.7zM334.7 592.7v-41.8h10.7c2.7 0 4.6 0.4 5.8 1.1 1.2 0.8 2.2 2.1 2.9 4 0.7 1.9 1.1 4.1 1.1 6.6 0 3.1-0.6 5.7-1.7 7.8 -1.1 2-2.8 3.3-5 3.9 1.1 1.1 2 2.2 2.7 3.5 0.7 1.3 1.7 3.5 2.9 6.8l3.1 8.2h-6l-3.7-9.1c-1.3-3.3-2.2-5.3-2.7-6.1s-1-1.4-1.5-1.7 -1.4-0.5-2.5-0.5h-1v17.4L334.7 592.7 334.7 592.7zM339.8 568.6h3.7c2.4 0 3.9-0.2 4.5-0.5s1.1-0.9 1.4-1.8c0.3-0.8 0.5-1.9 0.5-3.1 0-1.4-0.2-2.5-0.7-3.4 -0.4-0.9-1.1-1.4-1.9-1.6 -0.4-0.1-1.6-0.1-3.7-0.1h-3.9L339.8 568.6 339.8 568.6zM359.8 592.7v-41.8h5.1v41.8H359.8L359.8 592.7zM369.7 592.7v-41.8h8.1c3.1 0 5.1 0.2 6 0.6 1.4 0.6 2.6 2 3.6 4.1s1.5 4.8 1.5 8.1c0 2.6-0.3 4.7-0.8 6.5 -0.6 1.8-1.3 3.1-2.1 4.1 -0.9 1-1.7 1.7-2.6 2 -1.2 0.4-3 0.6-5.2 0.6h-3.3v15.8H369.7L369.7 592.7zM374.8 558V569.9h2.8c2 0 3.3-0.2 4-0.7 0.7-0.4 1.2-1.1 1.6-2.1 0.4-0.9 0.6-2 0.6-3.3 0-1.5-0.3-2.8-0.8-3.8s-1.2-1.6-2-1.8c-0.6-0.2-1.8-0.3-3.6-0.3h-2.6V558zM413.1 592.7l-10-41.8h-5.3l-9.8 41.8h5.4l2.1-9.5h10l2.2 9.5H413.1L413.1 592.7zM403.8 576.2H397l3.4-15.5L403.8 576.2 403.8 576.2zM415.8 592.7v-41.8h5.1v16.4h9.9v-16.4h5.1v41.8H430.8v-18.3h-9.9v18.3H415.8L415.8 592.7zM450.9 592.7V551.3h5.1v34.4h12.6v7H450.9L450.9 592.7zM471.1 572.1c0-4.3 0.4-7.8 1.1-10.7 0.6-2.1 1.3-4 2.3-5.7s2.1-2.9 3.2-3.8c1.6-1.1 3.4-1.7 5.4-1.7 3.7 0 6.6 1.9 8.9 5.7 2.2 3.8 3.3 9.1 3.3 15.9 0 6.8-1.1 12-3.3 15.8s-5.1 5.7-8.8 5.7 -6.7-1.9-8.9-5.7C472.2 583.9 471.1 578.7 471.1 572.1L471.1 572.1zM476.3 571.8c0 4.7 0.7 8.3 2 10.8 1.3 2.4 3 3.7 5 3.7s3.7-1.2 5-3.6c1.3-2.4 1.9-6.1 1.9-10.9s-0.6-8.4-1.9-10.7c-1.3-2.4-2.9-3.5-5-3.5 -2.1 0-3.8 1.2-5 3.6C477 563.4 476.3 567 476.3 571.8L476.3 571.8zM499.4 592.7v-41.8h5.1v16.4h9.9v-16.4h5.1v41.8h-5.1v-18.3h-9.9v18.3H499.4L499.4 592.7zM543.4 550.9h5v26.5c0 3.5-0.2 6.1-0.5 8 -0.5 2.4-1.4 4.4-2.7 5.9s-3 2.2-5.1 2.2c-2.5 0-4.4-1.1-5.7-3.5 -1.3-2.3-2-5.7-2-10.2l4.8-0.9c0.1 2.4 0.3 4.1 0.6 5.1 0.5 1.5 1.4 2.2 2.5 2.2 1.1 0 1.9-0.5 2.4-1.6s0.7-3.3 0.7-6.7V550.9L543.4 550.9zM553.7 592.7v-41.8h5.1v41.8H553.7L553.7 592.7zM563.6 592.7v-41.8h4.9l10.3 27.9v-27.9h4.7v41.8h-5.1L568.3 565.4v27.3H563.6L563.6 592.7zM611.4 592.7h-5.5l-2.2-9.5h-10l-2.1 9.5H586.2l9.8-41.8h5.3L611.4 592.7 611.4 592.7zM602.1 576.2l-3.5-15.5 -3.4 15.5H602.1L602.1 576.2zM615.7 592.7h5.5l5-31.2 5 31.2h5.4l6.1-41.8H637.6l-3.8 29.2 -4.4-29.2h-6l-4.6 28.7 -3.8-28.7h-5.2L615.7 592.7 615.7 592.7zM645 592.7v-41.8h5.1v41.8H645z"/><path d="M656.3 167.3H186v46.9c0 71.1 32.6 140.8 79.6 193.1 21.7 24.3 47.7 46.1 76.3 61.8 23.8 13.1 51.4 22.8 78.8 22.8 0.2 0 0.3 0 0.5 0 0.2 0 0.3 0 0.5 0 27.4 0 55-9.7 78.8-22.8 28.6-15.7 54.6-37.5 76.3-61.8 46.9-52.3 79.6-122 79.6-193.1v-46.9H656.3z" fill="#00A1E9"/><path d="M656.3 167.3H186v19.2h470.4v-19.2H656.3zM282.4 424.8c7.8-1.7 15.4-3 23.1-3.6 15-1.2 30.1 0.3 47.4 6 7.3 2.4 14.2 3.1 21.1 2.5 7.3-0.6 14.8-2.5 22.6-5.2 9.7-3.4 19.9-5.4 30.2-5.5 9.6-0.1 19.2 1.3 28.5 4.8 8.4 3.1 16 5.9 22.9 7.4 6 1.3 11.4 1.6 16.4 0.2 4.1-1.1 8.6-2.5 12.8-3.7 20.5-6.1 37.2-11 55.6-6 -7.1 7-14.6 13.8-22.4 20.1 -8.3 1-17.2 3.7-27.1 6.6 -4 1.2-8.3 2.5-13.1 3.8 -8.8 2.4-17.5 2.1-26.6 0.1 -8.2-1.8-16.7-4.9-26-8.4 -6.7-2.5-13.7-3.6-20.7-3.5 -7.9 0.1-15.8 1.7-23.4 4.3 -9.6 3.3-18.7 5.6-27.9 6.4 -9.6 0.8-19.3-0.2-29.5-3.5 -14.3-4.7-26.7-5.9-39.1-5 -1.3 0.1-2.5 0.2-3.8 0.4C296.1 437.3 289.1 431.2 282.4 424.8L282.4 424.8zM186.2 224.9c0.4 7.7 1.1 15.3 2.1 22.9l2.1 0.6c11.2 3.3 23.2 6.8 39 3 17.9-4.3 33.4-7.6 48.7-8.6 14.8-1 29.6 0.3 46.8 5.1 11.4 3.2 22.3 4.1 33.1 3.4 10.5-0.7 20.9-3 31.7-6.2 9.3-2.7 18.9-4.4 28.3-4.5 8.5-0.1 17.1 1 25.3 3.6 10.7 3.4 20.4 6.5 29.9 8.2 10.2 1.9 19.9 2.2 29.5 0 5.9-1.4 10.7-2.6 15.3-3.8 22.3-5.7 40.1-10.2 57.1-4.7 29.9 9.7 53.1 9.5 78.5 4.8 1.1-7.5 1.8-15 2.2-22.6 -25 5.1-46.7 6.1-74.1-2.8 -23.1-7.5-43.6-2.3-69.1 4.2 -5 1.3-10.3 2.6-14.9 3.7 -6.5 1.5-13.3 1.2-20.7-0.1 -8.1-1.5-17.2-4.3-27.1-7.5 -10.5-3.4-21.3-4.8-32.1-4.7 -11.7 0.2-23.2 2.1-34.2 5.4 -9.4 2.8-18.3 4.8-27.1 5.4 -8.5 0.6-16.9-0.1-25.8-2.6 -19.7-5.6-36.8-7-54-5.9 -16.7 1.1-33.2 4.7-52.3 9.2 -10.2 2.4-19.4-0.3-27.9-2.8C193.1 226.7 189.6 225.7 186.2 224.9L186.2 224.9zM200.2 297.1c2.8 8.1 5.9 16.2 9.4 24 6 0.6 12.6 0.5 19.9-1.3 17.9-4.3 33.4-7.6 48.7-8.6 14.8-1 29.6 0.3 46.8 5.1 11.4 3.2 22.3 4.1 33.1 3.4 10.5-0.7 20.9-3 31.7-6.2 9.3-2.7 18.9-4.4 28.3-4.5 8.5-0.1 17.1 1 25.3 3.6 10.7 3.4 20.4 6.5 29.9 8.2 10.2 1.9 19.9 2.2 29.5 0 5.9-1.4 10.7-2.6 15.3-3.8 22.3-5.7 40.1-10.2 57.1-4.7 21.7 7 39.9 8.8 58 7.5 3.3-7.5 6.2-15.1 8.9-22.9 -19.5 2.7-38 2-60.2-5.2C558.8 284.2 538.3 289.4 512.8 295.9c-5 1.3-10.3 2.6-14.9 3.7 -6.5 1.5-13.3 1.2-20.7-0.1C469.1 298 460 295.2 450.1 292c-10.5-3.4-21.3-4.8-32.1-4.7 -11.7 0.2-23.2 2.1-34.2 5.4 -9.4 2.8-18.3 4.8-27.1 5.4 -8.5 0.6-16.9-0.1-25.8-2.6 -19.7-5.6-36.8-7-54-5.9 -16.7 1.1-33.2 4.7-52.3 9.2C215.8 300.9 207.7 299.2 200.2 297.1L200.2 297.1zM235.2 367.9c4.3 6.5 8.8 12.8 13.5 19 12.6-3 24.1-5.2 35.3-6 14-1 28 0.3 44.2 5.1 11 3.3 21.5 4.2 31.9 3.4 10.1-0.7 20.1-3 30.4-6.2 8.7-2.7 17.7-4.4 26.7-4.5 8-0.1 16 1 23.7 3.6 10.2 3.4 19.5 6.5 28.6 8.3 9.8 1.9 19.1 2.2 28.5-0.1 5.7-1.4 10.3-2.6 14.6-3.8 21-5.6 37.8-10.1 53.8-4.7 9.3 3.2 17.9 5.3 26.1 6.5 5.1-6.6 10-13.5 14.7-20.5 -10.7-0.4-21.7-2.4-33.8-6.5 -22.2-7.6-41.8-2.3-66.3 4.2 -4.8 1.3-9.9 2.6-14.2 3.7 -5.9 1.5-12.3 1.2-19.2-0.2 -7.7-1.5-16.2-4.3-25.7-7.5 -10.1-3.4-20.5-4.8-30.9-4.7 -11.2 0.2-22.3 2.1-32.8 5.4 -8.9 2.8-17.3 4.7-25.5 5.3 -8 0.6-15.9-0.1-24.2-2.6 -18.9-5.6-35.3-7.1-51.7-5.9C267.2 360.4 252.2 363.7 235.2 367.9z" class="b"/><path d="M360.9 248.9c1-0.3 2-0.5 3.1-0.5 4.1-0.2 8.3 1.3 11.9 3.6 3.5 2.3 6.4 5.5 7.7 8.6l0 0c0.2 0.6 0.5 1.1 0.6 1.7l0.4 0.3c1.3-0.5 2.7-0.8 4.2-0.8 3 0 6.1 1 8.9 2.7l0 0c2.8 1.7 5.2 4.1 6.8 6.7 1 1.7 1.8 3.5 2.1 5.3l0.4 0.3c2.3-0.7 4.5-1 6.7-0.8 3.5 0.3 6.8 1.7 9.5 3.8s4.9 4.8 6.3 7.8c0.9 2 1.4 4 1.5 6.1l0.2 0.1c2.9-1 6-1.2 9-0.6 2.4 0.5 4.6 1.5 6.5 2.9 1.9 1.4 3.5 3.3 4.6 5.6 1.3 2.6 1.8 5.7 1.4 9.2 2.5-1 5.4-1 8.2-0.4 2.8 0.7 5.6 2.2 7.9 4.2s4.1 4.5 5.1 7.3c0.8 2.4 0.9 5.1 0.1 7.7 5.4 0.8 12.1 6.4 19.9 16.1 4 5.2 7.2 12.1 8.9 21.8l0 0c5.9 24.2 14.9 45.5 30.5 58.9 -5.1-3.7-10.1-7.4-15.2-11.1 1.9 6.3 3.8 12.6 5.7 18.8 -4.1-5.9-8.2-11.7-12.3-17.6 2.9 8.1 5.7 16.1 8.6 24.2 -4.1-6.7-8.2-13.4-12.3-20.1 1.4 7.1 2.7 14.2 4.1 21.3 -3.4-7-6.8-13.9-10.2-20.9 0.4 7.5 0.8 15 1.2 22.5 -4.4-9.8-6.5-14.7-10.9-24.5 0.1 5.1-1.9 5.1-1.8 10.2l-25.9-34.6c-5 6.9-9.5 16-12.8 30.9 -0.9-4.4 0.5-13 4.3-24 1.4-4.1-5.4-5.7-7.3-0.6 -2.3 5.9-4.1 10.4-7.6 14.3 3.5-9.4 6.6-18.5 5.3-22.8 -5.5 0.9-10.2 3.6-13.9 8.6 1-5.3 5.1-7.6 10.9-12 -9.6-4.7-16.8 4.3-21.5 14.3 -0.9-12.2 8-21.4 18.7-28 -3.1-4.7-3.6-8.7-4.7-13.7 -6-0.1-11.6-1-17.3-3.8 8.4-0.3 14.9 0.8 14.5-4.3 -2.5-3.2-5.9-8.3-8.4-11.5 -8.1 2-14.3-0.3-22.4-1.6 7.6-1.5 12.6-1.6 14.1-5.1 -1.5-3.8-5.1-8.2-9.6-12.9 -10.5 1.4-15.4 0.3-20.2-1 4.9-0.9 10-1.1 14.2-4.3 -3.9-5.1-7.4-8.9-10.9-12.9 -4.1 4.9-11.5 4.3-19.2 3.3 5.1-2 12.4-2.5 12.6-7.9 -4.5-5.5-7.9-7.8-10.9-8.6 -5.3 0.9-9.9 2.5-13.9 1.7 3.4-1.5 7.7-2.3 7.3-6.6 -3.9-4.1-8.1-7.3-12.9-9.3 -4.7 1.7-8.5 1.2-13.5 1.5 7-2.7 10.2-2.8 10.7-7 -5-2.9-10.2-5.4-15.6-7.7L303 264.4c-0.3 0-0.7 0-1.1 0 -1.5 0.1-3 0.1-4.3-0.3 -2.5-0.8-3.8-2.6-2.4-7 0.6-1.8 1.8-4.1 3.9-6.9 1.9-2.6 4.6-5.7 8.2-9.4 0-1 0-2.2-0.1-3.4 -0.3-7.6-0.7-18.1 6.2-21.6 3.9-2 7.4-1.6 10.6 0 2.9 1.4 5.4 3.7 7.6 5.9L358 247.1C358.8 247.8 359.9 248.3 360.9 248.9z" class="b"/><path d="M361.5 244.6h0.3c0.6-0.1 1.3-0.2 2-0.2 2.5-0.1 4.9 0.2 7.3 0.9 2.5 0.8 4.9 1.9 7 3.3 2 1.3 3.9 2.9 5.4 4.7 1.3 1.4 2.4 3 3.2 4.5 0.7-0.1 1.4-0.1 2.1-0.1 1.9 0 3.8 0.3 5.6 0.9 1.9 0.6 3.7 1.4 5.4 2.5l1.9 1.2v0.1c0.9 0.7 1.8 1.5 2.7 2.3 1.4 1.4 2.6 2.8 3.6 4.4 0.6 1 1.1 2 1.5 3l0.4-0.1c1.4-0.2 2.8-0.2 4.2 0 2.1 0.2 4.1 0.7 6 1.5 2 0.8 3.8 1.9 5.5 3.2 1.6 1.2 3.1 2.7 4.3 4.3 1.3 1.6 2.3 3.3 3.2 5.1 0.4 1 0.8 2 1.1 3 0.3 0 0.7-0.1 1-0.1 1.9-0.1 3.7 0 5.6 0.4 1.5 0.3 2.9 0.8 4.3 1.3 1.3 0.6 2.6 1.3 3.8 2.2 1.2 0.9 2.4 2 3.4 3.2l0 0c1 1.2 1.8 2.4 2.5 3.9l0 0c0.8 1.7 1.4 3.5 1.7 5.5 0 0.2 0.1 0.4 0.1 0.6 1.7-0.1 3.5 0.2 5.2 0.6 1.7 0.4 3.4 1.1 5 1.9 1.6 0.8 3.1 1.9 4.5 3.1 1.4 1.2 2.7 2.7 3.8 4.2 1 1.5 1.9 3.2 2.5 4.9l0 0c0.5 1.6 0.9 3.3 0.9 5.1 0 0.4 0 0.7 0 1.1 2.2 0.9 4.5 2.4 6.9 4.3 3.6 2.9 7.5 7 11.6 12.1l0 0c2.2 2.9 4.2 6.2 5.9 10.2 1.6 3.8 2.9 8.3 3.8 13.4 2.9 11.8 6.5 22.8 11.3 32.4 4.1 8.4 9.1 15.7 15.2 21.7 3.5 3.4 4.6 6.9 6.5 11.4l-14.3-6.7 4.2 17.1 -7.1-7.2 1.7 14.3 -8.5-8.5 -0.1 11.4 -8.9-12.2 -1.4 11.5L492.3 430l-0.4 6.1 -27.5-34.3c-1.3 2.1-2.5 4.4-3.6 7.1 -4 9.1-6 19.2-8.9 28.8 -4-9.9-5.6-17.1-3-27.5 -0.1 0.2-0.2 0.5-0.3 0.7 -3 6-7.9 10.6-12.4 15.6 0.6-9.6 2.7-16.1 5.1-25.3 0.3-1.1 0.5-2.2 0.7-3.1 -0.5 0.2-1 0.5-1.5 0.8 -3 1.8-11.6 12.5-11.9 12.2 -1.5-1.9-0.5-10.4-0.1-11.8 -3 4.6-5.6 9.7-8.6 14.4 -2.6-10.7-3.8-18.7 3.4-28.5 3.1-4.1 7.1-7.7 11.5-10.8 -1.4-2.9-2-5.6-2.7-8.5 -2.1-0.1-4.2-0.4-6.3-0.8 -7.2-1.4-12.7-5.1-18.8-8.8 7.1-1.3 13.3-1.6 20.3-2.3 0.1 0 0.2 0 0.3 0 -0.8-1.1-1.6-2.3-2.5-3.5 -0.9-1.2-1.8-2.5-2.6-3.6 -11.6 1.9-22.1-2.4-32.4-6.9 6.7-1.9 14.4-2.8 20.9-5 -0.6-0.9-1.2-1.9-2-2.9 -1.2-1.6-2.6-3.2-4.2-5 -4.6 0.5-8.1 0.5-11 0.3 -7.4-0.6-13.2-3.7-19.8-6.7 6.5-1.6 13.9-2.5 20.2-4.5 -1.7-2.1-3.5-4.1-5.2-6 -2.2 1.3-4.7 2-7.4 2.3 -8.6 0.9-13.7-1.5-21.1-5.1 4.1-1.6 14.5-3.9 17.8-6.6 -1.4-1.6-2.7-2.8-3.9-3.7 -1-0.8-2-1.3-2.8-1.6 -1.1 0.2-2.2 0.4-3.2 0.7 -8.8 1.8-12 0.4-19.7-3.3 3.8-1.7 8.5-3.1 12-5.3 -1.3-1.2-2.6-2.3-3.9-3.3 -1.5-1.1-3-2-4.7-2.8 -8.5 2.4-16.6 0.3-24.9-1.9 4.7-2.1 9.3-4.3 14.1-6 0.8-0.3 1.4-0.5 2-0.7 -1.1-0.6-2.1-1.1-3.2-1.6 -2.3-1.1-4.6-2.2-6.9-3.2l-30.4 0.7c-0.1 0-0.5 0-1 0h-0.1c-0.8 0-1.7 0.1-2.6 0 -1.1 0-2.1-0.2-3.1-0.5 -2.4-0.7-4.2-2.1-5.2-4.5 -0.8-2-0.9-4.4 0.1-7.6 0.4-1.2 0.9-2.4 1.7-3.8 0.7-1.3 1.7-2.7 2.8-4.3 1-1.4 2.2-2.9 3.7-4.5 1.1-1.3 2.4-2.7 3.7-4.1l-0.1-1.6 0 0v-0.1l0 0 0 0v-0.1l0 0 0 0c-0.3-8.6-0.7-20.5 8.3-25.2 2.6-1.3 5.1-1.8 7.5-1.8 2.4 0.1 4.6 0.7 6.7 1.7 1.8 0.9 3.4 2 4.9 3.1 1.4 1.1 2.6 2.3 3.8 3.4l26 25 1.1 0.6 0 0L361.5 244.6 361.5 244.6zM363.1 252.5c-0.4 0.1-0.7 0.1-1.1 0.2l-3-0.3 -1.6-0.8 0 0 -1.6-0.8 -0.9-0.6 -26.4-25.4c-1-1-2.1-2-3.3-3 -1.1-0.9-2.2-1.6-3.3-2.2 -1.1-0.5-2.3-0.9-3.4-0.9s-2.3 0.2-3.6 0.9c-4.6 2.4-4.2 11.4-4 17.9v0.1l0 0 0 0c0 1.2 0.1 2.3 0.1 3.4l-1.1 2.8c-1.8 1.8-3.3 3.5-4.6 5 -1.3 1.5-2.4 2.8-3.3 4 -0.9 1.3-1.7 2.4-2.2 3.4 -0.5 0.9-0.8 1.7-1.1 2.3 -0.4 1.2-0.5 1.9-0.4 2.1 0.1 0.2 0-0.2 0.2-0.1 0.3 0.1 0.6 0.1 1 0.1 0.6 0 1.3 0 2 0h0.1c0.3 0 0.7 0 1.1 0l31.3-0.7 1.6 0.3c2.8 1.2 5.5 2.4 8.1 3.7 2.6 1.3 5.3 2.7 7.9 4.2l2.3 1.3L353.6 272c-0.1 0.5-0.1 0.9-0.2 1.3h0.5c2.7 1.1 5.2 2.6 7.6 4.3s4.6 3.7 6.7 5.9l1.1 2.4c0.1 0.6 0.1 1.2 0 1.7 0.6-0.1 1.3-0.2 2-0.3l1.7 0.1c2 0.5 4 1.5 6.3 3.2 2 1.5 4.3 3.7 6.7 6.8l0.9 2.7c0 0.5-0.1 1.1-0.2 1.6l2.7-3.2 3.1 3.5 1.3 1.4c3.1 3.5 6.1 7 9.8 11.7l2.5 3.2 -0.9 0.7 0.7-0.1 2-0.3 1.4 1.5c2.3 2.4 4.4 4.8 6.2 7.1 1.9 2.4 3.3 4.8 4.2 7l0.6 1.5 -0.7 1.5c-0.3 0.7-0.6 1.3-1 1.8 1.5-0.1 3-0.3 4.6-0.6l2.5-0.6 1.6 2c1.3 1.7 2.8 3.8 4.3 5.9 1.4 2 2.9 4.1 4.1 5.6l0.8 2.1c0.2 1.8 0 3.3-0.5 4.4l2.6 0.1 0.7 3c0.3 1.3 0.4 1.7 0.5 2.2 0.8 3.6 1.5 6.8 3.7 10.2l2.2 3.4 -3.5 2.2c-2.6 1.6-5 3.3-7.2 5.2 2.9-0.6 6-0.3 9.3 1.3l0 0 0.3 0.1 5.9 2.8 -1.4 1.1 0.6 2c0.2 0.8 0.4 1.8 0.4 2.8 0.5-0.2 1.1-0.3 1.6-0.3 1-0.1 2.1 0 3 0.3 1.1 0.3 2 0.9 2.8 1.6 0.2 0.2 0.4 0.4 0.5 0.5 0.8-1.4 1.7-2.7 2.6-3.9l3.2-4.5 3.3 4.4 20.5 27.4c0-0.1 0-0.3 0-0.4l7.7-1.7 2.1 4.6v-0.8l7.6-2 0.6 1.3 2.4-0.9 -0.6-1.8 7.1-3.6 0.9 1.2 1.7-1.2c-2.4-3.6-4.6-7.4-6.6-11.5 -4.6-9.4-8.3-20-11.1-31.2H499.1l-0.6-3.3c-0.8-4.5-1.9-8.4-3.3-11.7 -1.4-3.2-3-6-4.8-8.3l0 0c-3.8-4.7-7.2-8.4-10.4-10.9 -2.7-2.2-5-3.5-7-3.7l-4.6-0.7 1.4-4.5c0.3-0.9 0.4-1.8 0.4-2.6 0-0.9-0.2-1.8-0.5-2.7l0 0c-0.3-1-0.8-2-1.5-2.9 -0.7-1-1.5-1.9-2.4-2.7 -0.9-0.8-1.9-1.5-3-2.1 -1-0.5-2.1-1-3.2-1.3 -1.1-0.3-2.1-0.4-3.1-0.3 -0.9 0-1.8 0.2-2.6 0.5l-6.2 2.5 0.7-6.6c0.1-1.4 0.1-2.7-0.1-3.8 -0.2-1.2-0.5-2.3-1-3.3l0 0c-0.4-0.8-0.9-1.6-1.4-2.2l0 0c-0.6-0.7-1.2-1.3-2-1.9 -0.7-0.5-1.5-1-2.3-1.3 -0.9-0.4-1.7-0.7-2.6-0.8 -1.1-0.2-2.3-0.3-3.5-0.2 -1.1 0.1-2.3 0.3-3.4 0.7l-2 0.7L428.4 297l-0.2-0.1 -1.5-1.2 -0.1-1.9c0-0.8-0.1-1.5-0.3-2.3s-0.5-1.6-0.8-2.3c-0.5-1.2-1.2-2.4-2.1-3.4 -0.8-1-1.8-2-3-2.9 -1.1-0.9-2.3-1.6-3.6-2.1 -1.2-0.5-2.5-0.8-3.8-0.9 -0.8-0.1-1.7-0.1-2.6 0 -0.8 0.1-1.6 0.3-2.5 0.6l-1.8 0.6 -1.6-1.1 -0.4-0.3 -1.5-1 -0.3-1.7c-0.1-0.6-0.3-1.2-0.5-1.9 -0.3-0.7-0.6-1.3-1-2 -0.7-1.1-1.5-2-2.4-3 -0.9-0.9-2-1.7-3.2-2.5l-0.3-0.2c-1.1-0.6-2.2-1.1-3.3-1.5 -1.1-0.3-2.2-0.5-3.3-0.5 -0.5 0-0.9 0-1.4 0.1l0 0c-0.4 0.1-0.8 0.2-1.2 0.4l-1.8 0.7 -1.7-1 -0.4-0.3 -1.8-2.4c0-0.1-0.1-0.3-0.2-0.5l0 0c-0.1-0.2-0.1-0.4-0.2-0.6l0 0c-0.5-1.2-1.4-2.4-2.4-3.5 -1.1-1.2-2.4-2.4-3.9-3.3 -1.5-1-3.2-1.8-4.9-2.4 -1.5-0.5-3-0.7-4.5-0.6C363.9 252.4 363.5 252.4 363.1 252.5z" class="b"/><path d="M359.6 250.4c10.2-4.6 23.5 6.2 24 13.7 8.4-5.3 22.2 4.6 22.3 14.1 12.3-5.5 25.2 6.4 24.1 17.2 10.4-5 24.4 2.5 21.5 17.3 9.6-6.2 27.1 6.5 20.7 18.9 -7.8 1.5-15.6 3-23.4 4.5 -31.6-24.7-63.3-49.4-94.9-74.2C355.7 258.1 357.7 254.3 359.6 250.4z" class="a"/><path d="M359.2 249.5c1.6-0.7 3.2-1.1 4.8-1.2 4.1-0.2 8.3 1.3 11.9 3.6 3.5 2.3 6.4 5.5 7.7 8.6l0 0c0.3 0.7 0.5 1.4 0.7 2 1.4-0.6 2.9-0.9 4.5-0.9 3 0 6.1 1 8.9 2.7l0 0c2.8 1.7 5.2 4.1 6.8 6.7 1.1 1.8 1.9 3.7 2.1 5.7 2.4-0.8 4.8-1.1 7.1-0.9 3.5 0.3 6.8 1.7 9.5 3.8 2.7 2.1 4.9 4.8 6.3 7.8 0.9 2 1.4 4.2 1.5 6.3 3-1.1 6.2-1.3 9.1-0.7 2.4 0.5 4.6 1.5 6.5 2.9 1.9 1.4 3.5 3.3 4.6 5.6 1.3 2.6 1.8 5.7 1.4 9.2 2.5-1 5.4-1 8.2-0.4 2.8 0.7 5.6 2.2 7.9 4.2s4.1 4.5 5.1 7.3c1 3.1 1 6.6-0.8 10l-0.2 0.4 -0.5 0.1 -23.4 4.5 -0.4 0.1 -0.4-0.3L353.2 262.4l-0.6-0.5 0.4-0.7 5.7-11.5 0.9 0.4L359.2 249.5 359.2 249.5zM364.1 250.4c-1.3 0.1-2.6 0.3-3.8 0.8l-5.2 10.5L449 335l22.4-4.4c1.3-2.8 1.3-5.5 0.5-8 -0.8-2.4-2.4-4.7-4.5-6.4 -2.1-1.8-4.5-3.1-7.1-3.7 -3-0.7-6-0.5-8.4 1l-2 1.3 0.5-2.3c0.8-3.9 0.3-7.3-1-10 -1-2-2.3-3.6-4-4.8 -1.7-1.2-3.6-2.1-5.7-2.5 -3.1-0.6-6.4-0.3-9.4 1.2l-1.6 0.8 0.2-1.8c0.2-2.3-0.3-4.7-1.2-6.9 -1.2-2.7-3.2-5.2-5.7-7.1 -2.5-1.9-5.4-3.1-8.5-3.4 -2.4-0.2-4.9 0.1-7.4 1.2l-1.4 0.6v-1.5c0-2-0.7-4.1-1.9-6.1 -1.5-2.4-3.7-4.5-6.2-6.1l0 0c-2.5-1.5-5.2-2.5-7.8-2.5 -1.7 0-3.3 0.4-4.8 1.3l-1.4 0.9 -0.1-1.7c0-0.9-0.3-1.8-0.8-2.8l0 0c-1.2-2.7-3.8-5.6-7-7.7C371.6 251.5 367.8 250.1 364.1 250.4z"/><path d="M470.6 387c-7.4 8.3-14.5 17.6-19.2 38.7 -0.9-4.4 0.5-13 4.3-24 1.4-4.1-5.4-5.7-7.3-0.6 -2.3 5.9-4.1 10.4-7.6 14.3 3.5-9.4 6.6-18.5 5.3-22.8 -5.5 0.9-10.2 3.6-13.9 8.6 1-5.3 5.1-7.6 10.9-12 -9.6-4.7-16.8 4.3-21.5 14.3 -0.9-12.2 8-21.4 18.7-28 -3.1-4.7-3.6-8.7-4.7-13.7 -6-0.1-11.6-1-17.3-3.8 8.4-0.3 14.9 0.8 14.5-4.3 -2.5-3.2-5.9-8.3-8.4-11.5 -8.1 2-14.3-0.3-22.4-1.6 7.6-1.5 12.6-1.6 14.1-5.1 -1.5-3.8-5.1-8.2-9.6-12.9 -10.5 1.4-15.4 0.3-20.2-1 4.9-0.9 10-1.1 14.2-4.3 -3.9-5.1-7.4-8.9-10.9-12.9 -4.1 4.9-11.5 4.3-19.2 3.3 5.1-2 12.4-2.5 12.6-7.9 -4.5-5.5-7.9-7.8-10.9-8.6 -5.3 0.9-9.9 2.5-13.9 1.7 3.4-1.5 7.7-2.3 7.3-6.6 -3.9-4.1-8.1-7.3-12.9-9.3 -4.7 1.7-8.5 1.2-13.5 1.5 8.5-3.3 11.4-2.7 10.6-10.6 4.7 3.2 12-3.1 16.8 0 29.5 18.8 58.2 45.2 86.9 64.7C459.1 350.8 464.9 368.9 470.6 387z"/><path d="M490.1 429.5c-0.1-5.1 1.9-5.1 1.8-10.2 4.4 9.8 6.5 14.7 10.9 24.5 -0.4-7.5-0.8-15-1.2-22.5 3.4 7 6.8 13.9 10.2 20.9 -1.4-7.1-2.7-14.2-4.1-21.3 4.1 6.7 8.2 13.4 12.3 20.1 -2.9-8.1-5.7-16.1-8.6-24.2 4.1 5.9 8.2 11.7 12.3 17.6 -1.9-6.3-3.8-12.6-5.7-18.8 5.1 3.7 10.1 7.4 15.2 11.1C517.7 413.3 508.6 392.1 502.7 367.8c-16.9 3.8-33.3 7.5-50.2 11.3C465 395.9 477.6 412.7 490.1 429.5z"/><path d="M488.6 423.8c0-6.1 3.7-3.7 3.5-9.6 3.4 9.3 4 7.2 7.9 16.1 -0.3-5.6-1.2-14.2-1.5-19.9 2.8 5.7 5.4 11.8 8.2 17.6 -1.2-6.1-2.5-13.1-3.6-19.2 2.9 4.8 5.9 9.1 8.8 14 -2.5-7-3.5-9.7-5.9-16.7 4.4 6.4 7.3 9.2 11.7 15.6 -1.4-4.6-3.7-8.6-5.1-13.2 2.1 1.5 6.6 6 8.7 7.5 -9.9-13.5-15.8-30.4-19.7-46.3 -15.4 3.5-30.9 7-46.3 10.5C466.3 394.9 477.5 409 488.6 423.8z" class="a"/><path d="M503.7 395.1c1.6-25.6-2.7-39.9-9.8-49.2C479.8 328.3 469.1 324 463.7 338.1c-11-4.3-21.1 5.3-23.9 14.2 -3.9 12.2 7.7 29 16.8 36.1 2.4 1.9 6 4.7 9.3 6 7.3 2.8 15.9 2.8 26.3 2.8 0.2-6.6 0.1-10.4-1.6-15.7C494.3 387.5 500 391.4 503.7 395.1z"/><path d="M490 395.2c1.2-11.3-5.3-21.5-8.1-34.9 -1.7-7.9 3.5-3.6 3.9-0.4 1.5 12.9 3.4 20.3 15.7 30.9 -0.3-25.2-1.6-34.7-9.7-45.2 -3-3.7-14.2-15.1-20-13.4 -2.3 0.6-3.8 4-4.6 6 -0.5 1.3-1 2.7-1.5 4 -1.3-0.5-2.7-1-4-1.6 -8.6-3.4-17.1 4.6-19.5 12.3 -3.4 10.8 10.2 29.4 18.3 35.7C468.2 394.7 479.8 394.9 490 395.2z" class="a"/><path d="M472.1 331.6c-6.8-6.6-13.7-12.9-20.9-19.1 -28.7-24.5-60.5-45.4-94.6-63.7 -8.9-8.5-17.7-17.1-26.6-25.6 -4.2-4-9.5-8.8-15.9-5.5 -7 3.6-4.8 17.7-5 24.1 -7.7 7.9-11.2 12.9-12.2 16.1 -1.7 5.5 2.2 4.7 5.9 4.7 10.6-0.2 21.1-0.5 31.7-0.7 43 17.9 74.5 55.7 107.1 95.9 8-2.2 16-4.4 24.1-6.6C467.8 344.7 469.9 338.1 472.1 331.6z" class="a"/><path d="M469.8 332.1c-3-2.9-6.2-5.9-9.4-8.8 -3.5-3.2-7-6.3-10.6-9.3 -14.3-12.2-29.3-23.5-45.1-34 -15.8-10.5-32.2-20.3-49.2-29.4l-0.4-0.3 -26.6-25.6c-2-1.9-4.2-4-6.6-5.1 -2.1-1-4.5-1.3-7 0 -4.6 2.4-4.2 11.4-4 17.9 0.1 1.7 0.1 3.2 0.1 4.5l-0.6 1.3c-3.8 3.9-6.5 7-8.4 9.6 -1.8 2.4-2.8 4.3-3.3 5.7 -0.5 1.4-0.4 1.9-0.2 2 0.6 0.2 1.8 0.2 3 0.1 0.4 0 0.7 0 1.2 0l31.7-0.7 0.8 0.1c21.8 9.1 40.6 23.1 58.1 40 17.1 16.5 32.9 35.7 49 55.4l21.8-5.9L469.8 332.1 469.8 332.1zM463.2 320.4c3.5 3.2 6.9 6.4 10.3 9.7l-1.4 1.4 1.9 0.6 -6.6 19.7 -0.3 1 -1 0.3 -24.1 6.6L440.7 360l-0.8-1c-16.2-20-32.2-39.5-49.5-56.1C373.3 286.5 355 272.7 334 263.9l-31.3 0.7c-0.3 0-0.7 0-1.1 0 -1.5 0.1-3 0.1-4.3-0.3 -2.5-0.8-3.8-2.6-2.4-7 0.6-1.8 1.8-4.1 3.9-6.9 1.9-2.6 4.6-5.7 8.2-9.4 0-1 0-2.2-0.1-3.4 -0.3-7.6-0.7-18.1 6.2-21.6 3.9-2 7.4-1.6 10.6 0 2.9 1.4 5.4 3.7 7.6 5.9l26.4 25.4c17 9.1 33.5 18.9 49.3 29.5 15.9 10.6 31.1 22 45.5 34.3C456.2 314.1 459.7 317.2 463.2 320.4z"/><path d="M352.9 245.3l-23-22.1c-4.2-4-9.5-8.8-15.9-5.5 -7 3.6-4.8 17.7-5 24.1 2.2 6 9.7 7 23.6 9.1l-12.5-7.8c1.9-0.4 21 6 22.7 5.5l-13.5-10.2C334.7 237.8 344.9 246.3 352.9 245.3z"/><path d="M421 333.3c0.5 0.5 7.1 6.9 7.5 7.4 1.6-8.5 14.2-21.3 24.6-25.5 -0.5-0.9-2.5-2.1-3-3C435.6 320 425.6 325.6 421 333.3z"/><path d="M407.1 317.2c0.5 0.5 5.6 6.1 6 6.7 1.6-8.5 8.3-21.2 18.7-25.5 -0.5-0.9-2.2-2.7-2.6-3.6C420.9 299.4 409.9 308.9 407.1 317.2z"/><path d="M390.2 299.3c0.5 0.5 4.9 5.4 5.4 5.9 1.6-8.5 6-21.7 13.6-24.6 -0.5-0.9-3.7-1.9-4.1-2.8C399.4 281.2 393 291 390.2 299.3z"/><path d="M376.5 287.7c-0.7-0.1-6-4.4-6.7-4.5 6.1-6.1 12.4-13.5 10.5-21.4 1-0.1 3.2 1.6 4.2 1.5C384.9 269.9 381.7 280.8 376.5 287.7z"/><path d="M355.7 272.8c-0.7-0.1-4.1-3-4.8-3.1 -0.4-9.7 1.3-16.2 4.7-22.4 1-0.1 2.4 2.6 3.4 2.5C356.8 253.4 353.8 255.8 355.7 272.8z"/><circle cx="461.6" cy="366.8" r="2.3"/><path d="M421-91l0.6-0.7 0.7 0.7c6.5 8.6 22 18.8 39.2 35.4 24.8 24.1 40.1 52.4 42 81.8 1 14.9-0.2 30.3-6.4 45.4C488.8 92 474.2 104.5 456.8 117c-13.5 9.8-25.9 19.3-23.5 31.5 1.6 8.2-12.2-2.9-12.2 6.1 0-9-13.9 2.1-12.2-6.1 2.4-12.2-9.9-21.7-23.5-31.5 -17.3-12.5-31.9-25-40.3-45.4 -6.2-15.1-7.3-30.5-6.4-45.4 1.9-29.4 17.2-57.7 42-81.8C398-72.2 414.5-82.4 421-91L421-91zM421.1 151.9v2.8C421.1 153.7 421.1 152.8 421.1 151.9z"/><path d="M421.1 148.5c2.1-1.1 4.6-0.8 6.9-0.4 0.4 0.1 1.3 0.3 2 0.4 -2.4-15 14.4-26.4 24.9-34C471.8 102.3 486 90.2 494.1 70.4 499.9 56.3 501.2 41.5 500.2 26.5 498.2-4.6 481-32 459.1-53.2c-7.5-7.3-15.4-13.9-23.4-20.6C431.2-77.6 425.6-82 421.5-86.7c-4.2 4.7-10.1 9.2-14.7 12.9 -8.2 6.6-16.3 13.2-23.9 20.5C361.2-32 344-4.6 342 26.5c-1 15.1 0.4 29.9 6.1 43.9 8.1 19.8 22.3 31.9 39.2 44.1 10.5 7.6 27.3 19 24.9 34 0.8-0.1 1.6-0.3 2-0.4C416.8 147.6 419.3 147.6 421.1 148.5z" fill="#094"/><polygon points="186 148.3 196.6 148.3 196.6 134.8 227.5 134.8 227.5 148.3 248.9 148.3 248.9 134.8 279.7 134.8 279.7 148.3 301.1 148.3 301.1 134.8 332 134.8 332 148.3 353.4 148.3 353.4 134.8 384.3 134.8 384.3 148.3 405.6 148.3 405.6 134.8 436.5 134.8 436.5 148.3 457.9 148.3 457.9 134.8 488.8 134.8 488.8 148.3 510.1 148.3 510.1 134.8 541 134.8 541 148.3 562.4 148.3 562.4 134.8 593.3 134.8 593.3 148.3 614.7 148.3 614.7 134.8 645.5 134.8 645.5 148.3 656.3 148.3 656.3 167.3 186 167.3 "/><path d="M227.6-8.8l7.7-24.1h25L240-47.7l7.8-24 -20.2 14.9 -20.2-14.9 7.8 24 -20.3 14.8h25L227.6-8.8 227.6-8.8zM420.7-77.9l3.9 12.3H437.4L427-58l4 12.3 -10.4-7.6 -10.4 7.6 4-12.3L403.8-65.6h12.8L420.7-77.9 420.7-77.9zM465.6-31.2l3.9 12.3h12.8L472-11.3 476 1 465.6-6.6 455.2 1l4-12.3L448.8-18.9h12.8L465.6-31.2 465.6-31.2zM374.9-31.2l3.9 12.3h12.8L381.2-11.3l4 12.3L374.8-6.6 364.4 1l4-12.3L358-18.9h12.8L374.9-31.2 374.9-31.2zM465.6 56.4l3.9 12.3h12.8L472 76.2l4 12.3L465.6 80.9 455.2 88.5l4-12.3L448.8 68.6h12.8L465.6 56.4 465.6 56.4zM374.9 56.4l3.9 12.3h12.8l-10.4 7.6 4 12.3L374.8 81l-10.4 7.6 4-12.3L358 68.7h12.8L374.9 56.4 374.9 56.4zM614.6 60.1l7.7 24.1h25L627 99l7.8 24 -20.2-14.9L594.4 123l7.8-24 -20.3-14.8h25L614.6 60.1 614.6 60.1zM227.6 60.1l7.7 24.1h25L240 99l7.8 24 -20.2-14.9L207.4 123l7.8-24 -20.3-14.8h25L227.6 60.1 227.6 60.1zM614.6-8.8l7.7-24.1h25L627-47.7l7.8-24 -20.2 14.9L594.4-71.7l7.8 24 -20.3 14.8h25L614.6-8.8z" class="b"/><path d="M423.9-31.6c-0.1-1.1 0.7-2.1 1.8-2.2 1.1-0.1 2.1 0.7 2.2 1.8 0.6 7.4 1 15.3 1.2 23.5 2.9-2.5 4.7-5.8 5.7-9.4 1.8-6.3 1.1-13.9-1-20.9 -0.3-1.1 0.3-2.2 1.3-2.5 1.1-0.3 2.2 0.3 2.5 1.4 2.3 7.7 3 16 1 23.1 -1.5 5.3-4.5 10-9.4 13.2 0.4 20.7 0 43.4-0.6 66.5 6.4-3.7 12.6-8.5 18.5-14.3 7.1-7 13.9-15.6 20.2-25.7 0.6-0.9 1.8-1.2 2.8-0.6 0.9 0.6 1.2 1.8 0.6 2.8 -6.5 10.4-13.4 19.1-20.8 26.4 -6.8 6.7-13.9 12-21.5 16.1l-0.1 4c-0.5 18.5-0.9 37.1-1 54.5 0 1.1-0.9 2-2 2 -1.1 0-2-0.9-2-2 0-17.6 0.5-36.1 1-54.6l0.1-2.9c-8.6-3-15.8-7.1-22-11.9 -6.3-4.9-11.5-10.5-16.3-16.5 -0.7-0.9-0.6-2.1 0.3-2.8 0.9-0.7 2.1-0.6 2.8 0.3 4.6 5.7 9.7 11.2 15.7 15.9 5.6 4.4 11.9 8.1 19.6 10.9 0.6-22.9 1-45.6 0.6-66.3C418.6-2.4 415.2-6 413.3-11.5c-1.7-5.1-1.8-11.8-1.7-19.3 0-1.1 0.9-2 2-2s2 0.9 2 2c-0.1 7.1 0 13.5 1.5 18 1.3 3.8 3.6 6.3 7.9 6.9C424.9-14.9 424.5-23.5 423.9-31.6z"/><rect width="842" height="595" fill="none"/></svg>