<?xml version="1.0" encoding="UTF-8"?>
<!DOCTYPE svg PUBLIC "-//W3C//DTD SVG 1.1//EN" "http://www.w3.org/Graphics/SVG/1.1/DTD/svg11.dtd">
<!-- Creator: CorelDRAW X6 -->
<svg xmlns="http://www.w3.org/2000/svg" xml:space="preserve" width="300mm" height="300mm" version="1.1" style="shape-rendering:geometricPrecision; text-rendering:geometricPrecision; image-rendering:optimizeQuality; fill-rule:evenodd; clip-rule:evenodd"
viewBox="0 0 30000 30000"
 xmlns:xlink="http://www.w3.org/1999/xlink">
 <defs>
  <style type="text/css">
   <![CDATA[
    .str0 {stroke:#D2D3D5;stroke-width:7.62}
    .fil0 {fill:#A7C4D2}
   ]]>
  </style>
 </defs>
 <g id="Layer_x0020_1">
  <metadata id="CorelCorpID_0Corel-Layer"/>
  <path class="fil0 str0" d="M11695 18398c46,-22 -74,-55 69,-2 24,9 28,21 47,36l281 190c76,61 114,82 200,124 223,108 306,195 644,325l954 320c848,236 518,246 1366,239 52,0 102,-2 153,-4 143,-5 121,17 135,29 -133,41 -460,23 -628,26 -309,6 -748,-145 -1050,-250l-952 -322c-288,-98 -315,-154 -507,-256 -3,-2 -8,-4 -11,-6 -203,-101 -567,-301 -701,-450zm800 -8235c-309,-41 -207,95 -365,220 -45,36 -77,31 -119,69 -10,137 57,199 89,306 -122,69 -675,237 -847,293 -139,45 -275,95 -415,145 -342,123 -227,155 -387,42 -41,74 -30,56 -113,87 34,153 52,60 -31,153 -30,33 -56,118 -75,159 -320,-8 -311,63 -459,230l-173 -10c-21,59 -58,117 -80,175 -108,282 149,164 -557,445 -96,38 -90,26 -109,130 -50,270 -60,30 -59,421 26,15 71,33 98,54 50,39 17,28 56,79 54,70 129,37 170,101 53,82 46,331 105,456 27,58 77,142 95,194 31,85 -3,150 88,186 71,28 149,7 207,63 68,66 33,127 75,198 151,58 223,-48 314,91 50,77 104,198 111,301 -95,32 -165,60 -245,92 36,109 251,399 327,502 82,112 61,169 259,156 190,-12 119,-108 270,-121 8,126 -73,174 -56,280l98 14c131,416 -36,203 -49,507 64,25 100,66 161,96l-48 235c71,10 204,1 247,12 70,18 42,71 157,91 123,-140 -47,-222 475,-183 -34,58 -68,97 -103,149 -37,56 -64,88 -99,142l473 281c-10,608 -100,480 -228,944 -46,164 -72,321 -123,455 -106,278 -257,248 -282,298 -7,71 79,149 67,236 -18,130 -281,509 -322,660 -33,121 24,208 -1,305 -23,87 -90,121 -116,206 -32,101 -24,165 -80,244 -72,102 -82,129 -34,260l176 12c-5,149 -55,258 -23,440 29,170 121,149 249,212 142,69 321,387 369,544 173,-9 268,22 408,-52 158,-83 342,-63 469,61 45,44 4,19 64,55 144,84 203,81 303,224 63,91 140,122 208,234 83,136 89,123 122,304 19,101 99,267 98,323 -2,114 -135,169 -157,280l286 83c10,152 -1,189 97,262 59,44 160,104 235,114 85,-70 41,-85 94,-136 19,-19 131,-62 162,-76 108,-51 217,-100 322,-152 91,-46 200,-134 287,-189 90,-57 149,-166 200,-275 28,-60 34,-125 38,-199 5,-97 25,-109 69,-170 131,-185 -61,-389 152,-562 117,-94 171,68 305,-137 34,-52 37,-115 46,-189 40,-333 173,-279 212,-503 38,-216 178,-328 124,-569 -48,-210 -336,-423 -280,-640 65,-253 147,-487 208,-745 58,-247 0,-145 -66,-325 37,-54 78,-89 66,-182 -16,-133 -1,-78 10,-191 21,-216 -51,-110 38,-407 62,-205 41,-197 185,-306 83,-63 53,-63 104,-134 34,-47 78,-74 120,-107 47,57 99,168 143,235 12,-15 137,-109 163,-123 -52,-141 -58,-86 -7,-249 47,-152 38,-121 123,-216 48,-54 200,-364 220,-443 18,-73 9,-395 -10,-488 -23,-109 -205,-207 -11,-298 73,-34 40,-5 111,9 137,26 234,-78 351,-139l667 -334c104,-71 247,-264 373,-287 112,-20 131,-69 201,-141 53,-55 94,-127 137,-185 153,22 355,151 477,87 121,-64 286,-227 415,-42l127 -71c4,3 8,7 11,9l197 232c158,-16 146,-44 252,-112 20,-13 41,-24 52,-33 25,-19 27,-26 45,-41 55,-43 17,-14 96,-21 48,-253 -66,-103 -87,-326l231 50c41,-49 66,-43 114,-80l5 -28 18 -35 130 8c30,-51 70,-137 133,-160 102,11 104,5 195,-13 122,-39 229,-3 332,23 -9,162 -9,141 55,243 88,8 114,-6 173,37 2,1 54,46 55,47 40,38 17,6 43,59 61,126 94,139 277,122 33,-3 487,-188 566,-221 282,-120 261,-168 424,-374 68,-86 134,-105 222,-169 97,-70 74,-115 255,-135 -63,-424 -420,-59 -665,-110 -34,-7 -127,-50 -171,-70 -113,-51 -68,-29 -128,-110 -52,-71 -81,-44 -139,-99 -76,-71 23,-45 -210,-265 -76,-72 -386,-626 -446,-743 -29,-55 -56,-106 -80,-158 -30,-66 -14,-30 -21,-98 -22,-204 11,-54 263,-307l-357 -580c64,-67 874,-619 877,-633 2,-6 7,-6 10,-10 -45,-88 -108,-163 -157,-233 -29,76 -17,94 -67,137l-822 596c-53,-18 -128,-72 -153,-105 -78,37 -13,48 -53,23 -75,-47 -9,-162 -169,-144 -9,-167 -64,-100 -143,-180 -41,-42 -75,-180 -74,-241 113,9 374,62 415,-64l19 -178c-240,-72 -235,56 -385,-186l-289 -2 -164 -244c-207,-277 -153,-183 -362,-268 -226,-93 -311,-425 -395,-639 -189,-481 -106,-497 -207,-829 -49,-160 -117,-557 -200,-836 -52,87 -116,304 -157,415 -91,252 -127,268 -72,438 -42,-23 -83,-56 -117,-66 -76,-22 -45,4 -128,10 -47,-67 -136,-166 -198,-236l341 50c28,-90 102,-216 111,-309l-551 -134 15 -130c172,14 273,68 459,49 63,-144 62,-128 89,-316 18,-121 39,-238 49,-360 -145,-61 -356,-240 -504,-342 -72,-50 -193,-100 -281,-143 -182,-88 -125,-20 -209,-215 -85,-197 -175,-400 -252,-597 -41,-106 -109,-196 -121,-304 -8,-75 -21,-83 -44,-159 -36,-117 -7,-57 -108,-97 30,-127 -35,89 18,-36 2,-5 9,-19 10,-24 19,-75 -28,-92 -48,-105 -4,-3 -21,-10 -24,-11l-26 -11c-18,-242 4,-195 -81,-408 -169,-420 -72,-139 -208,-271 16,-68 15,-40 82,-70l-146 -354c-25,-90 32,-49 -30,-94 -29,-9 -530,379 -568,411 -67,57 -113,83 -198,118l264 761c45,132 93,241 125,382 15,65 22,149 50,205 64,130 89,85 51,160 -109,-111 -111,-211 -152,-366 -66,-249 -228,-678 -324,-949 -11,-31 -20,-60 -31,-88 -39,-98 -42,-64 -42,-64 -276,61 -796,415 -1062,595 -138,94 -116,46 -192,216 -196,439 -163,456 -246,977 -44,279 -104,380 -196,619 -153,399 -4,737 -36,1117 -10,123 -37,270 -3,387 34,121 198,395 -298,408 -149,166 -93,251 -146,474l-398 1493c-198,-36 -423,-117 -571,-249 -51,-45 -89,-92 -159,-120 -55,26 -111,58 -171,89 -57,29 -97,70 -171,87 20,222 436,1446 528,1786 49,182 47,129 138,251 75,101 177,293 289,354l80 39c115,50 172,81 291,103 202,38 444,76 640,122 644,151 1334,210 1988,333l328 47c340,54 691,78 1036,103 590,42 737,145 1443,106 151,-8 211,0 327,-65l480 -285c202,-122 596,-248 746,-398 -33,-139 -152,-262 -225,-378 -181,-285 -557,-828 -637,-1080 -95,-299 -91,-380 -267,-493 -133,-86 -175,-384 -238,-527 -152,-345 -180,-248 -353,-411 -125,-117 -165,-354 -209,-558 -52,-241 -43,-487 -201,-550 -47,35 -80,56 -136,97 -276,-118 -168,-133 -254,-397 -39,-121 -132,-182 -211,-265 -133,-141 -222,-271 -304,-478 -63,-158 -136,-273 -214,-412l-396 -878c-64,-141 -134,-278 -225,-405 -41,-57 -227,-323 -233,-396 44,15 62,49 86,85l201 294c75,122 150,272 224,420 82,163 251,510 310,677 32,91 52,153 96,223 43,68 96,145 129,214 163,338 84,300 347,618 132,160 226,179 256,412 27,212 153,253 227,205l96 -72c80,25 142,70 163,158 55,231 81,505 152,732 57,181 110,244 256,334 232,143 292,586 392,777 87,166 188,26 261,339 57,245 149,415 276,604l988 1660c250,400 483,882 722,1283 34,57 105,131 107,204l-5 23c-27,-20 -6,-4 -28,-27 -65,-70 -78,-146 -132,-225 -162,-237 -281,-498 -428,-747 -102,-172 -180,-342 -287,-511 -111,-174 -187,-334 -274,-502l-905 480c-41,27 -72,43 -116,69 -289,166 -226,170 -581,196 -160,12 -181,-3 -337,-10 -127,-5 -258,8 -384,-6 -230,-25 -467,-76 -698,-89 -355,-19 -713,-58 -1061,-107l-1020 -155c-109,-21 -231,-37 -336,-48 -99,-11 -224,-40 -331,-59 -227,-41 -442,-81 -668,-124 -366,-70 -898,-84 -1136,-422l-167 -224c-137,-176 -244,-641 -307,-864 -105,-372 -266,-823 -356,-1182zm6659 -2030l27 77c-131,64 -180,33 -231,-25l204 -52z"/>
 </g>
</svg>
